<?xml version="1.0" encoding="UTF-8"?><svg xmlns:svg="http://www.w3.org/2000/svg" xmlns="http://www.w3.org/2000/svg" xmlns:xlink="http://www.w3.org/1999/xlink" version="1.0" ><g transform="translate(50,50)" ><rect style=" fill: rgb(225,225,225);  stroke: rgb(255,255,255);  stroke-width: 2; " x="0" y="0" height="500" width="500" /><line style=" stroke: rgb(245,245,245);  stroke-width: 1; " x1="50" y1="0" x2="50" y2="500" /><line style=" stroke: rgb(255,255,255);  stroke-width: 2; " x1="100" y1="0" x2="100" y2="500" /><line style=" stroke: rgb(245,245,245);  stroke-width: 1; " x1="150" y1="0" x2="150" y2="500" /><line style=" stroke: rgb(255,255,255);  stroke-width: 2; " x1="200" y1="0" x2="200" y2="500" /><line style=" stroke: rgb(245,245,245);  stroke-width: 1; " x1="250" y1="0" x2="250" y2="500" /><line style=" stroke: rgb(255,255,255);  stroke-width: 2; " x1="300" y1="0" x2="300" y2="500" /><line style=" stroke: rgb(245,245,245);  stroke-width: 1; " x1="350" y1="0" x2="350" y2="500" /><line style=" stroke: rgb(255,255,255);  stroke-width: 2; " x1="400" y1="0" x2="400" y2="500" /><line style=" stroke: rgb(245,245,245);  stroke-width: 1; " x1="450" y1="0" x2="450" y2="500" /><line style=" stroke: rgb(245,245,245);  stroke-width: 1; " x1="0" y1="50" x2="500" y2="50" /><line style=" stroke: rgb(255,255,255);  stroke-width: 2; " x1="0" y1="100" x2="500" y2="100" /><line style=" stroke: rgb(245,245,245);  stroke-width: 1; " x1="0" y1="150" x2="500" y2="150" /><line style=" stroke: rgb(255,255,255);  stroke-width: 2; " x1="0" y1="200" x2="500" y2="200" /><line style=" stroke: rgb(245,245,245);  stroke-width: 1; " x1="0" y1="250" x2="500" y2="250" /><line style=" stroke: rgb(255,255,255);  stroke-width: 2; " x1="0" y1="300" x2="500" y2="300" /><line style=" stroke: rgb(245,245,245);  stroke-width: 1; " x1="0" y1="350" x2="500" y2="350" /><line style=" stroke: rgb(255,255,255);  stroke-width: 2; " x1="0" y1="400" x2="500" y2="400" /><line style=" stroke: rgb(245,245,245);  stroke-width: 1; " x1="0" y1="450" x2="500" y2="450" /><text style=" font-size: 12px;  fill: rgb(150,150,150);  text-anchor: middle;  font-family: Verdana; " x="0" y="520" >-30.0</text><text style=" font-size: 12px;  fill: rgb(150,150,150);  text-anchor: middle;  font-family: Verdana; " x="100" y="520" >-22.0</text><text style=" font-size: 12px;  fill: rgb(150,150,150);  text-anchor: middle;  font-family: Verdana; " x="200" y="520" >-14.0</text><text style=" font-size: 12px;  fill: rgb(150,150,150);  text-anchor: middle;  font-family: Verdana; " x="300" y="520" >-6.0</text><text style=" font-size: 12px;  fill: rgb(150,150,150);  text-anchor: middle;  font-family: Verdana; " x="400" y="520" >2.0</text><text style=" font-size: 12px;  fill: rgb(150,150,150);  text-anchor: middle;  font-family: Verdana; " x="500" y="520" >10.0</text><text style=" font-size: 12px;  fill: rgb(150,150,150);  text-anchor: end;  alignment-baseline: middle;  font-family: Verdana; " x="0" y="400" >-18.0</text><text style=" font-size: 12px;  fill: rgb(150,150,150);  text-anchor: end;  alignment-baseline: middle;  font-family: Verdana; " x="0" y="300" >-6.0</text><text style=" font-size: 12px;  fill: rgb(150,150,150);  text-anchor: end;  alignment-baseline: middle;  font-family: Verdana; " x="0" y="200" >6.0</text><text style=" font-size: 12px;  fill: rgb(150,150,150);  text-anchor: end;  alignment-baseline: middle;  font-family: Verdana; " x="0" y="100" >18.0</text><text style=" font-size: 12px;  fill: rgb(150,150,150);  text-anchor: end;  alignment-baseline: middle;  font-family: Verdana; " x="0" y="0" >30.0</text><circle fill="rgb(0,0,255)" cx="185.4375" cy="442.25" r="3" /><circle fill="rgb(0,0,255)" cx="162.3" cy="439.16666" r="3" /><circle fill="rgb(0,0,255)" cx="135.3625" cy="434.0" r="3" /><circle fill="rgb(0,0,255)" cx="111.2625" cy="427.25" r="3" /><circle fill="rgb(0,0,255)" cx="90.5625" cy="419.16666" r="3" /><circle fill="rgb(0,0,255)" cx="73.6625" cy="409.66666" r="3" /><circle fill="rgb(0,0,255)" cx="56.925" cy="394.41666" r="3" /><circle fill="rgb(0,0,255)" cx="51.075" cy="384.75" r="3" /><circle fill="rgb(0,0,255)" cx="47.525" cy="371.8333" r="3" /><circle fill="rgb(0,0,255)" cx="48.025" cy="358.0" r="3" /><circle fill="rgb(0,0,255)" cx="52.325" cy="343.4167" r="3" /><circle fill="rgb(0,0,255)" cx="60.075" cy="328.25" r="3" /><circle fill="rgb(0,0,255)" cx="68.5" cy="315.75" r="3" /><circle fill="rgb(0,0,255)" cx="78.65" cy="303.0833" r="3" /><circle fill="rgb(0,0,255)" cx="93.3875" cy="286.8333" r="3" /><circle fill="rgb(0,0,255)" cx="109.9375" cy="270.4167" r="3" /><circle fill="rgb(0,0,255)" cx="127.7875" cy="254.0" r="3" /><circle fill="rgb(0,0,255)" cx="146.3875" cy="237.5" r="3" /><circle fill="rgb(0,0,255)" cx="172.6875" cy="214.66666" r="3" /><circle fill="rgb(0,0,255)" cx="187.3875" cy="201.83334" r="3" /><circle fill="rgb(0,0,255)" cx="204.9375" cy="186.16666" r="3" /><circle fill="rgb(0,0,255)" cx="221.1375" cy="170.91666" r="3" /><circle fill="rgb(0,0,255)" cx="235.5875" cy="156.16666" r="3" /><circle fill="rgb(0,0,255)" cx="247.8875" cy="142.16666" r="3" /><circle fill="rgb(0,0,255)" cx="259.375" cy="126.25" r="3" /><circle fill="rgb(0,0,255)" cx="264.8625" cy="116.33334" r="3" /><circle fill="rgb(0,0,255)" cx="269.1375" cy="104.75" r="3" /><circle fill="rgb(0,0,255)" cx="270.45" cy="94.25" r="3" /><circle fill="rgb(0,0,255)" cx="268.8375" cy="84.75" r="3" /><circle fill="rgb(0,0,255)" cx="264.4125" cy="76.5" r="3" /><circle fill="rgb(0,0,255)" cx="253.9375" cy="67.0" r="3" /><circle fill="rgb(0,0,255)" cx="246.0375" cy="62.75" r="3" /><circle fill="rgb(0,0,255)" cx="234.6125" cy="58.666656" r="3" /><circle fill="rgb(0,0,255)" cx="221.9625" cy="56.0" r="3" /><circle fill="rgb(0,0,255)" cx="208.65" cy="54.75" r="3" /><circle fill="rgb(0,0,255)" cx="195.275" cy="54.916656" r="3" /><circle fill="rgb(0,0,255)" cx="180.0125" cy="57.0" r="3" /><circle fill="rgb(0,0,255)" cx="170.7625" cy="59.5" r="3" /><circle fill="rgb(0,0,255)" cx="160.7625" cy="63.916656" r="3" /><circle fill="rgb(0,0,255)" cx="152.9125" cy="69.66666" r="3" /><circle fill="rgb(0,0,255)" cx="147.6125" cy="76.66666" r="3" /><circle fill="rgb(0,0,255)" cx="145.1625" cy="84.91666" r="3" /><circle fill="rgb(0,0,255)" cx="146.8375" cy="98.33334" r="3" /><circle fill="rgb(0,0,255)" cx="150.55" cy="106.91666" r="3" /><circle fill="rgb(0,0,255)" cx="157.9875" cy="118.5" r="3" /><circle fill="rgb(0,0,255)" cx="168.3875" cy="131.0" r="3" /><circle fill="rgb(0,0,255)" cx="181.575" cy="144.33334" r="3" /><circle fill="rgb(0,0,255)" cx="197.2375" cy="158.25" r="3" /><circle fill="rgb(0,0,255)" cx="222.7125" cy="178.83334" r="3" /><circle fill="rgb(0,0,255)" cx="238.7375" cy="191.08334" r="3" /><circle fill="rgb(0,0,255)" cx="259.85" cy="206.66666" r="3" /><circle fill="rgb(0,0,255)" cx="281.725" cy="222.58334" r="3" /><circle fill="rgb(0,0,255)" cx="303.8375" cy="238.66666" r="3" /><circle fill="rgb(0,0,255)" cx="325.675" cy="254.91667" r="3" /><circle fill="rgb(0,0,255)" cx="350.775" cy="274.4167" r="3" /><circle fill="rgb(0,0,255)" cx="366.425" cy="287.3333" r="3" /><circle fill="rgb(0,0,255)" cx="384.275" cy="303.25" r="3" /><circle fill="rgb(0,0,255)" cx="399.775" cy="319.0" r="3" /><circle fill="rgb(0,0,255)" cx="412.4125" cy="334.25" r="3" /><circle fill="rgb(0,0,255)" cx="421.775" cy="349.0" r="3" /><circle fill="rgb(0,0,255)" cx="428.625" cy="368.5833" r="3" /><circle fill="rgb(0,0,255)" cx="428.975" cy="379.08334" r="3" /><circle fill="rgb(0,0,255)" cx="425.55" cy="391.41666" r="3" /><circle fill="rgb(0,0,255)" cx="417.75" cy="402.75" r="3" /><circle fill="rgb(0,0,255)" cx="405.575" cy="412.91666" r="3" /><circle fill="rgb(0,0,255)" cx="389.1875" cy="421.91666" r="3" /><circle fill="rgb(0,0,255)" cx="364.35" cy="430.91666" r="3" /><circle fill="rgb(0,0,255)" cx="345.025" cy="435.75" r="3" /><circle fill="rgb(0,0,255)" cx="318.275" cy="440.5" r="3" /><circle fill="rgb(0,0,255)" cx="289.3125" cy="443.66666" r="3" /><circle fill="rgb(0,0,255)" cx="258.925" cy="445.16666" r="3" /><circle fill="rgb(0,0,255)" cx="227.9875" cy="445.08334" r="3" /><circle fill="rgb(0,0,255)" cx="191.3625" cy="442.83334" r="3" /></g></svg>