<?xml version="1.0" encoding="UTF-8"?><svg xmlns:svg="http://www.w3.org/2000/svg" xmlns="http://www.w3.org/2000/svg" xmlns:xlink="http://www.w3.org/1999/xlink" version="1.0" ><g ><rect fill="#ffffff" x="0" y="0" height="160" width="500" /><text style=" font-size: 75px;  fill: 000066;  alignment-baseline: middle;  font-family: Garamond; " x="120" y="60" >Analemma</text><circle fill="#000066" cx="52.982143" cy="120.61364" r="2" /><circle fill="#000066" cx="46.37143" cy="119.77273" r="2" /><circle fill="#000066" cx="38.675" cy="118.36364" r="2" /><circle fill="#000066" cx="31.789286" cy="116.52273" r="2" /><circle fill="#000066" cx="25.875" cy="114.318184" r="2" /><circle fill="#000066" cx="21.046429" cy="111.72727" r="2" /><circle fill="#000066" cx="16.264286" cy="107.568184" r="2" /><circle fill="#000066" cx="14.592857" cy="104.931816" r="2" /><circle fill="#000066" cx="13.578571" cy="101.40909" r="2" /><circle fill="#000066" cx="13.721429" cy="97.63636" r="2" /><circle fill="#000066" cx="14.95" cy="93.65909" r="2" /><circle fill="#000066" cx="17.164286" cy="89.52273" r="2" /><circle fill="#000066" cx="19.571428" cy="86.11364" r="2" /><circle fill="#000066" cx="22.471428" cy="82.65909" r="2" /><circle fill="#000066" cx="26.682142" cy="78.22727" r="2" /><circle fill="#000066" cx="31.410715" cy="73.75" r="2" /><circle fill="#000066" cx="36.510715" cy="69.27273" r="2" /><circle fill="#000066" cx="41.825" cy="64.77273" r="2" /><circle fill="#000066" cx="49.339287" cy="58.545456" r="2" /><circle fill="#000066" cx="53.539288" cy="55.045456" r="2" /><circle fill="#000066" cx="58.55357" cy="50.772728" r="2" /><circle fill="#000066" cx="63.182144" cy="46.613636" r="2" /><circle fill="#000066" cx="67.310715" cy="42.590908" r="2" /><circle fill="#000066" cx="70.825" cy="38.772728" r="2" /><circle fill="#000066" cx="74.10714" cy="34.43182" r="2" /><circle fill="#000066" cx="75.675" cy="31.727272" r="2" /><circle fill="#000066" cx="76.89643" cy="28.568182" r="2" /><circle fill="#000066" cx="77.27143" cy="25.704546" r="2" /><circle fill="#000066" cx="76.810715" cy="23.113636" r="2" /><circle fill="#000066" cx="75.546425" cy="20.863636" r="2" /><circle fill="#000066" cx="72.55357" cy="18.272728" r="2" /><circle fill="#000066" cx="70.296425" cy="17.113636" r="2" /><circle fill="#000066" cx="67.03214" cy="16.0" r="2" /><circle fill="#000066" cx="63.41786" cy="15.272727" r="2" /><circle fill="#000066" cx="59.614285" cy="14.931818" r="2" /><circle fill="#000066" cx="55.79286" cy="14.977273" r="2" /><circle fill="#000066" cx="51.432144" cy="15.545455" r="2" /><circle fill="#000066" cx="48.789288" cy="16.227272" r="2" /><circle fill="#000066" cx="45.932144" cy="17.431818" r="2" /><circle fill="#000066" cx="43.689285" cy="19.0" r="2" /><circle fill="#000066" cx="42.175" cy="20.90909" r="2" /><circle fill="#000066" cx="41.475" cy="23.15909" r="2" /><circle fill="#000066" cx="41.95357" cy="26.818182" r="2" /><circle fill="#000066" cx="43.014286" cy="29.15909" r="2" /><circle fill="#000066" cx="45.139286" cy="32.31818" r="2" /><circle fill="#000066" cx="48.110714" cy="35.727272" r="2" /><circle fill="#000066" cx="51.87857" cy="39.363636" r="2" /><circle fill="#000066" cx="56.353573" cy="43.159092" r="2" /><circle fill="#000066" cx="63.63214" cy="48.772728" r="2" /><circle fill="#000066" cx="68.21072" cy="52.113636" r="2" /><circle fill="#000066" cx="74.24286" cy="56.363636" r="2" /><circle fill="#000066" cx="80.49286" cy="60.704544" r="2" /><circle fill="#000066" cx="86.810715" cy="65.09091" r="2" /><circle fill="#000066" cx="93.05" cy="69.52273" r="2" /><circle fill="#000066" cx="100.22143" cy="74.84091" r="2" /><circle fill="#000066" cx="104.692856" cy="78.36364" r="2" /><circle fill="#000066" cx="109.792854" cy="82.704544" r="2" /><circle fill="#000066" cx="114.22143" cy="87.0" r="2" /><circle fill="#000066" cx="117.832146" cy="91.15909" r="2" /><circle fill="#000066" cx="120.50714" cy="95.181816" r="2" /><circle fill="#000066" cx="122.46429" cy="100.52273" r="2" /><circle fill="#000066" cx="122.564285" cy="103.38636" r="2" /><circle fill="#000066" cx="121.58572" cy="106.75" r="2" /><circle fill="#000066" cx="119.35714" cy="109.84091" r="2" /><circle fill="#000066" cx="115.87857" cy="112.61364" r="2" /><circle fill="#000066" cx="111.19643" cy="115.068184" r="2" /><circle fill="#000066" cx="104.1" cy="117.52273" r="2" /><circle fill="#000066" cx="98.578575" cy="118.84091" r="2" /><circle fill="#000066" cx="90.935715" cy="120.13636" r="2" /><circle fill="#000066" cx="82.66071" cy="121.0" r="2" /><circle fill="#000066" cx="73.97857" cy="121.40909" r="2" /><circle fill="#000066" cx="65.13928" cy="121.38636" r="2" /><circle fill="#000066" cx="54.675" cy="120.77273" r="2" /></g></svg>