<?xml version="1.0" encoding="UTF-8"?><svg xmlns:svg="http://www.w3.org/2000/svg" xmlns="http://www.w3.org/2000/svg" xmlns:xlink="http://www.w3.org/1999/xlink" version="1.0" ><g transform="translate(50,50)" ><rect style=" fill: rgb(225,225,225);  stroke: rgb(255,255,255);  stroke-width: 2; " x="0" y="0" height="500" width="500" /><line style=" stroke: rgb(245,245,245);  stroke-width: 1; " x1="50" y1="0" x2="50" y2="500" /><line style=" stroke: rgb(255,255,255);  stroke-width: 2; " x1="100" y1="0" x2="100" y2="500" /><line style=" stroke: rgb(245,245,245);  stroke-width: 1; " x1="150" y1="0" x2="150" y2="500" /><line style=" stroke: rgb(255,255,255);  stroke-width: 2; " x1="200" y1="0" x2="200" y2="500" /><line style=" stroke: rgb(245,245,245);  stroke-width: 1; " x1="250" y1="0" x2="250" y2="500" /><line style=" stroke: rgb(255,255,255);  stroke-width: 2; " x1="300" y1="0" x2="300" y2="500" /><line style=" stroke: rgb(245,245,245);  stroke-width: 1; " x1="350" y1="0" x2="350" y2="500" /><line style=" stroke: rgb(255,255,255);  stroke-width: 2; " x1="400" y1="0" x2="400" y2="500" /><line style=" stroke: rgb(245,245,245);  stroke-width: 1; " x1="450" y1="0" x2="450" y2="500" /><line style=" stroke: rgb(245,245,245);  stroke-width: 1; " x1="0" y1="50" x2="500" y2="50" /><line style=" stroke: rgb(255,255,255);  stroke-width: 2; " x1="0" y1="100" x2="500" y2="100" /><line style=" stroke: rgb(245,245,245);  stroke-width: 1; " x1="0" y1="150" x2="500" y2="150" /><line style=" stroke: rgb(255,255,255);  stroke-width: 2; " x1="0" y1="200" x2="500" y2="200" /><line style=" stroke: rgb(245,245,245);  stroke-width: 1; " x1="0" y1="250" x2="500" y2="250" /><line style=" stroke: rgb(255,255,255);  stroke-width: 2; " x1="0" y1="300" x2="500" y2="300" /><line style=" stroke: rgb(245,245,245);  stroke-width: 1; " x1="0" y1="350" x2="500" y2="350" /><line style=" stroke: rgb(255,255,255);  stroke-width: 2; " x1="0" y1="400" x2="500" y2="400" /><line style=" stroke: rgb(245,245,245);  stroke-width: 1; " x1="0" y1="450" x2="500" y2="450" /><text style=" font-size: 12px;  fill: rgb(150,150,150);  text-anchor: middle;  font-family: Verdana; " x="0" y="520" >0.0</text><text style=" font-size: 12px;  fill: rgb(150,150,150);  text-anchor: middle;  font-family: Verdana; " x="100" y="520" >20.0</text><text style=" font-size: 12px;  fill: rgb(150,150,150);  text-anchor: middle;  font-family: Verdana; " x="200" y="520" >40.0</text><text style=" font-size: 12px;  fill: rgb(150,150,150);  text-anchor: middle;  font-family: Verdana; " x="300" y="520" >60.0</text><text style=" font-size: 12px;  fill: rgb(150,150,150);  text-anchor: middle;  font-family: Verdana; " x="400" y="520" >80.0</text><text style=" font-size: 12px;  fill: rgb(150,150,150);  text-anchor: middle;  font-family: Verdana; " x="500" y="520" >100.0</text><text style=" font-size: 12px;  fill: rgb(150,150,150);  text-anchor: end;  alignment-baseline: middle;  font-family: Verdana; " x="0" y="400" >20.0</text><text style=" font-size: 12px;  fill: rgb(150,150,150);  text-anchor: end;  alignment-baseline: middle;  font-family: Verdana; " x="0" y="300" >40.0</text><text style=" font-size: 12px;  fill: rgb(150,150,150);  text-anchor: end;  alignment-baseline: middle;  font-family: Verdana; " x="0" y="200" >60.0</text><text style=" font-size: 12px;  fill: rgb(150,150,150);  text-anchor: end;  alignment-baseline: middle;  font-family: Verdana; " x="0" y="100" >80.0</text><text style=" font-size: 12px;  fill: rgb(150,150,150);  text-anchor: end;  alignment-baseline: middle;  font-family: Verdana; " x="0" y="0" >100.0</text><circle fill="rgb(0,0,255)" cx="340.0" cy="460.0" r="3" /><text style=" font-size: 10px;  fill: rgb(100,100,150);  font-family: Verdana; " x="343.0" y="457.0" >68.0,8.0</text><circle fill="rgb(0,0,255)" cx="130.0" cy="215.0" r="3" /><text style=" font-size: 10px;  fill: rgb(100,100,150);  font-family: Verdana; " x="133.0" y="212.0" >26.0,57.0</text><circle fill="rgb(0,0,255)" cx="85.0" cy="385.0" r="3" /><text style=" font-size: 10px;  fill: rgb(100,100,150);  font-family: Verdana; " x="88.0" y="382.0" >17.0,23.0</text><circle fill="rgb(0,0,255)" cx="295.0" cy="80.0" r="3" /><text style=" font-size: 10px;  fill: rgb(100,100,150);  font-family: Verdana; " x="298.0" y="77.0" >59.0,84.0</text><circle fill="rgb(0,0,255)" cx="140.0" cy="230.0" r="3" /><text style=" font-size: 10px;  fill: rgb(100,100,150);  font-family: Verdana; " x="143.0" y="227.0" >28.0,54.0</text><circle fill="rgb(0,0,255)" cx="320.0" cy="105.0" r="3" /><text style=" font-size: 10px;  fill: rgb(100,100,150);  font-family: Verdana; " x="323.0" y="102.0" >64.0,79.0</text><circle fill="rgb(0,0,255)" cx="315.0" cy="185.0" r="3" /><text style=" font-size: 10px;  fill: rgb(100,100,150);  font-family: Verdana; " x="318.0" y="182.0" >63.0,63.0</text><circle fill="rgb(0,0,255)" cx="365.0" cy="55.0" r="3" /><text style=" font-size: 10px;  fill: rgb(100,100,150);  font-family: Verdana; " x="368.0" y="52.0" >73.0,89.0</text><circle fill="rgb(0,0,255)" cx="345.0" cy="430.0" r="3" /><text style=" font-size: 10px;  fill: rgb(100,100,150);  font-family: Verdana; " x="348.0" y="427.0" >69.0,14.0</text><circle fill="rgb(0,0,255)" cx="365.0" cy="265.0" r="3" /><text style=" font-size: 10px;  fill: rgb(100,100,150);  font-family: Verdana; " x="368.0" y="262.0" >73.0,47.0</text><circle fill="rgb(0,0,255)" cx="395.0" cy="95.0" r="3" /><text style=" font-size: 10px;  fill: rgb(100,100,150);  font-family: Verdana; " x="398.0" y="92.0" >79.0,81.0</text><circle fill="rgb(0,0,255)" cx="455.0" cy="500.0" r="3" /><text style=" font-size: 10px;  fill: rgb(100,100,150);  font-family: Verdana; " x="458.0" y="497.0" >91.0,0.0</text><circle fill="rgb(0,0,255)" cx="490.0" cy="385.0" r="3" /><text style=" font-size: 10px;  fill: rgb(100,100,150);  font-family: Verdana; " x="493.0" y="382.0" >98.0,23.0</text><circle fill="rgb(0,0,255)" cx="55.0" cy="490.0" r="3" /><text style=" font-size: 10px;  fill: rgb(100,100,150);  font-family: Verdana; " x="58.0" y="487.0" >11.0,2.0</text><circle fill="rgb(0,0,255)" cx="160.0" cy="80.0" r="3" /><text style=" font-size: 10px;  fill: rgb(100,100,150);  font-family: Verdana; " x="163.0" y="77.0" >32.0,84.0</text><circle fill="rgb(0,0,255)" cx="280.0" cy="315.0" r="3" /><text style=" font-size: 10px;  fill: rgb(100,100,150);  font-family: Verdana; " x="283.0" y="312.0" >56.0,37.0</text><circle fill="rgb(0,0,255)" cx="90.0" cy="335.0" r="3" /><text style=" font-size: 10px;  fill: rgb(100,100,150);  font-family: Verdana; " x="93.0" y="332.0" >18.0,33.0</text><circle fill="rgb(0,0,255)" cx="170.0" cy="395.0" r="3" /><text style=" font-size: 10px;  fill: rgb(100,100,150);  font-family: Verdana; " x="173.0" y="392.0" >34.0,21.0</text><circle fill="rgb(0,0,255)" cx="195.0" cy="180.0" r="3" /><text style=" font-size: 10px;  fill: rgb(100,100,150);  font-family: Verdana; " x="198.0" y="177.0" >39.0,64.0</text><circle fill="rgb(0,0,255)" cx="415.0" cy="490.0" r="3" /><text style=" font-size: 10px;  fill: rgb(100,100,150);  font-family: Verdana; " x="418.0" y="487.0" >83.0,2.0</text><circle fill="rgb(0,0,255)" cx="280.0" cy="440.0" r="3" /><text style=" font-size: 10px;  fill: rgb(100,100,150);  font-family: Verdana; " x="283.0" y="437.0" >56.0,12.0</text><circle fill="rgb(0,0,255)" cx="435.0" cy="55.0" r="3" /><text style=" font-size: 10px;  fill: rgb(100,100,150);  font-family: Verdana; " x="438.0" y="52.0" >87.0,89.0</text><circle fill="rgb(0,0,255)" cx="465.0" cy="190.0" r="3" /><text style=" font-size: 10px;  fill: rgb(100,100,150);  font-family: Verdana; " x="468.0" y="187.0" >93.0,62.0</text><circle fill="rgb(0,0,255)" cx="170.0" cy="280.0" r="3" /><text style=" font-size: 10px;  fill: rgb(100,100,150);  font-family: Verdana; " x="173.0" y="277.0" >34.0,44.0</text><circle fill="rgb(0,0,255)" cx="425.0" cy="5.0" r="3" /><text style=" font-size: 10px;  fill: rgb(100,100,150);  font-family: Verdana; " x="428.0" y="2.0" >85.0,99.0</text></g></svg>