<?xml version="1.0" encoding="UTF-8"?><svg xmlns:svg="http://www.w3.org/2000/svg" xmlns="http://www.w3.org/2000/svg" xmlns:xlink="http://www.w3.org/1999/xlink" version="1.0" ><g transform="translate(50,50)" ><rect style=" fill: rgb(225,225,225);  stroke: rgb(255,255,255);  stroke-width: 2; " x="0" y="0" height="500" width="500" /><line style=" stroke: rgb(245,245,245);  stroke-width: 1; " x1="50" y1="0" x2="50" y2="500" /><line style=" stroke: rgb(255,255,255);  stroke-width: 2; " x1="100" y1="0" x2="100" y2="500" /><line style=" stroke: rgb(245,245,245);  stroke-width: 1; " x1="150" y1="0" x2="150" y2="500" /><line style=" stroke: rgb(255,255,255);  stroke-width: 2; " x1="200" y1="0" x2="200" y2="500" /><line style=" stroke: rgb(245,245,245);  stroke-width: 1; " x1="250" y1="0" x2="250" y2="500" /><line style=" stroke: rgb(255,255,255);  stroke-width: 2; " x1="300" y1="0" x2="300" y2="500" /><line style=" stroke: rgb(245,245,245);  stroke-width: 1; " x1="350" y1="0" x2="350" y2="500" /><line style=" stroke: rgb(255,255,255);  stroke-width: 2; " x1="400" y1="0" x2="400" y2="500" /><line style=" stroke: rgb(245,245,245);  stroke-width: 1; " x1="450" y1="0" x2="450" y2="500" /><line style=" stroke: rgb(245,245,245);  stroke-width: 1; " x1="0" y1="50" x2="500" y2="50" /><line style=" stroke: rgb(255,255,255);  stroke-width: 2; " x1="0" y1="100" x2="500" y2="100" /><line style=" stroke: rgb(245,245,245);  stroke-width: 1; " x1="0" y1="150" x2="500" y2="150" /><line style=" stroke: rgb(255,255,255);  stroke-width: 2; " x1="0" y1="200" x2="500" y2="200" /><line style=" stroke: rgb(245,245,245);  stroke-width: 1; " x1="0" y1="250" x2="500" y2="250" /><line style=" stroke: rgb(255,255,255);  stroke-width: 2; " x1="0" y1="300" x2="500" y2="300" /><line style=" stroke: rgb(245,245,245);  stroke-width: 1; " x1="0" y1="350" x2="500" y2="350" /><line style=" stroke: rgb(255,255,255);  stroke-width: 2; " x1="0" y1="400" x2="500" y2="400" /><line style=" stroke: rgb(245,245,245);  stroke-width: 1; " x1="0" y1="450" x2="500" y2="450" /><text style=" font-size: 12px;  fill: rgb(150,150,150);  text-anchor: middle;  font-family: Verdana; " x="0" y="520" >0.0</text><text style=" font-size: 12px;  fill: rgb(150,150,150);  text-anchor: middle;  font-family: Verdana; " x="100" y="520" >20.0</text><text style=" font-size: 12px;  fill: rgb(150,150,150);  text-anchor: middle;  font-family: Verdana; " x="200" y="520" >40.0</text><text style=" font-size: 12px;  fill: rgb(150,150,150);  text-anchor: middle;  font-family: Verdana; " x="300" y="520" >60.0</text><text style=" font-size: 12px;  fill: rgb(150,150,150);  text-anchor: middle;  font-family: Verdana; " x="400" y="520" >80.0</text><text style=" font-size: 12px;  fill: rgb(150,150,150);  text-anchor: middle;  font-family: Verdana; " x="500" y="520" >100.0</text><text style=" font-size: 12px;  fill: rgb(150,150,150);  text-anchor: end;  alignment-baseline: middle;  font-family: Verdana; " x="0" y="400" >20.0</text><text style=" font-size: 12px;  fill: rgb(150,150,150);  text-anchor: end;  alignment-baseline: middle;  font-family: Verdana; " x="0" y="300" >40.0</text><text style=" font-size: 12px;  fill: rgb(150,150,150);  text-anchor: end;  alignment-baseline: middle;  font-family: Verdana; " x="0" y="200" >60.0</text><text style=" font-size: 12px;  fill: rgb(150,150,150);  text-anchor: end;  alignment-baseline: middle;  font-family: Verdana; " x="0" y="100" >80.0</text><text style=" font-size: 12px;  fill: rgb(150,150,150);  text-anchor: end;  alignment-baseline: middle;  font-family: Verdana; " x="0" y="0" >100.0</text><circle fill="rgb(0,0,255)" cx="360.0" cy="470.0" r="3" /><text style=" font-size: 10px;  fill: rgb(100,100,150);  font-family: Verdana; " x="363.0" y="467.0" >72.0,6.0</text><circle fill="rgb(0,0,255)" cx="345.0" cy="440.0" r="3" /><text style=" font-size: 10px;  fill: rgb(100,100,150);  font-family: Verdana; " x="348.0" y="437.0" >69.0,12.0</text><circle fill="rgb(0,0,255)" cx="165.0" cy="160.0" r="3" /><text style=" font-size: 10px;  fill: rgb(100,100,150);  font-family: Verdana; " x="168.0" y="157.0" >33.0,68.0</text><circle fill="rgb(0,0,255)" cx="470.0" cy="150.0" r="3" /><text style=" font-size: 10px;  fill: rgb(100,100,150);  font-family: Verdana; " x="473.0" y="147.0" >94.0,70.0</text><circle fill="rgb(0,0,255)" cx="255.0" cy="415.0" r="3" /><text style=" font-size: 10px;  fill: rgb(100,100,150);  font-family: Verdana; " x="258.0" y="412.0" >51.0,17.0</text><circle fill="rgb(0,0,255)" cx="360.0" cy="70.0" r="3" /><text style=" font-size: 10px;  fill: rgb(100,100,150);  font-family: Verdana; " x="363.0" y="67.0" >72.0,86.0</text><circle fill="rgb(0,0,255)" cx="460.0" cy="250.0" r="3" /><text style=" font-size: 10px;  fill: rgb(100,100,150);  font-family: Verdana; " x="463.0" y="247.0" >92.0,50.0</text><circle fill="rgb(0,0,255)" cx="145.0" cy="85.0" r="3" /><text style=" font-size: 10px;  fill: rgb(100,100,150);  font-family: Verdana; " x="148.0" y="82.0" >29.0,83.0</text><circle fill="rgb(0,0,255)" cx="300.0" cy="155.0" r="3" /><text style=" font-size: 10px;  fill: rgb(100,100,150);  font-family: Verdana; " x="303.0" y="152.0" >60.0,69.0</text><circle fill="rgb(0,0,255)" cx="480.0" cy="330.0" r="3" /><text style=" font-size: 10px;  fill: rgb(100,100,150);  font-family: Verdana; " x="483.0" y="327.0" >96.0,34.0</text><circle fill="rgb(0,0,255)" cx="150.0" cy="360.0" r="3" /><text style=" font-size: 10px;  fill: rgb(100,100,150);  font-family: Verdana; " x="153.0" y="357.0" >30.0,28.0</text><circle fill="rgb(0,0,255)" cx="195.0" cy="355.0" r="3" /><text style=" font-size: 10px;  fill: rgb(100,100,150);  font-family: Verdana; " x="198.0" y="352.0" >39.0,29.0</text><circle fill="rgb(0,0,255)" cx="310.0" cy="50.0" r="3" /><text style=" font-size: 10px;  fill: rgb(100,100,150);  font-family: Verdana; " x="313.0" y="47.0" >62.0,90.0</text><circle fill="rgb(0,0,255)" cx="70.0" cy="405.0" r="3" /><text style=" font-size: 10px;  fill: rgb(100,100,150);  font-family: Verdana; " x="73.0" y="402.0" >14.0,19.0</text><circle fill="rgb(0,0,255)" cx="235.0" cy="205.0" r="3" /><text style=" font-size: 10px;  fill: rgb(100,100,150);  font-family: Verdana; " x="238.0" y="202.0" >47.0,59.0</text><circle fill="rgb(0,0,255)" cx="285.0" cy="15.0" r="3" /><text style=" font-size: 10px;  fill: rgb(100,100,150);  font-family: Verdana; " x="288.0" y="12.0" >57.0,97.0</text><circle fill="rgb(0,0,255)" cx="280.0" cy="375.0" r="3" /><text style=" font-size: 10px;  fill: rgb(100,100,150);  font-family: Verdana; " x="283.0" y="372.0" >56.0,25.0</text><circle fill="rgb(0,0,255)" cx="270.0" cy="145.0" r="3" /><text style=" font-size: 10px;  fill: rgb(100,100,150);  font-family: Verdana; " x="273.0" y="142.0" >54.0,71.0</text><circle fill="rgb(0,0,255)" cx="235.0" cy="230.0" r="3" /><text style=" font-size: 10px;  fill: rgb(100,100,150);  font-family: Verdana; " x="238.0" y="227.0" >47.0,54.0</text><circle fill="rgb(0,0,255)" cx="355.0" cy="155.0" r="3" /><text style=" font-size: 10px;  fill: rgb(100,100,150);  font-family: Verdana; " x="358.0" y="152.0" >71.0,69.0</text><circle fill="rgb(0,0,255)" cx="335.0" cy="415.0" r="3" /><text style=" font-size: 10px;  fill: rgb(100,100,150);  font-family: Verdana; " x="338.0" y="412.0" >67.0,17.0</text><circle fill="rgb(0,0,255)" cx="495.0" cy="255.0" r="3" /><text style=" font-size: 10px;  fill: rgb(100,100,150);  font-family: Verdana; " x="498.0" y="252.0" >99.0,49.0</text><circle fill="rgb(0,0,255)" cx="5.0" cy="345.0" r="3" /><text style=" font-size: 10px;  fill: rgb(100,100,150);  font-family: Verdana; " x="8.0" y="342.0" >1.0,31.0</text><circle fill="rgb(0,0,255)" cx="90.0" cy="475.0" r="3" /><text style=" font-size: 10px;  fill: rgb(100,100,150);  font-family: Verdana; " x="93.0" y="472.0" >18.0,5.0</text><circle fill="rgb(0,0,255)" cx="140.0" cy="50.0" r="3" /><text style=" font-size: 10px;  fill: rgb(100,100,150);  font-family: Verdana; " x="143.0" y="47.0" >28.0,90.0</text></g></svg>