<?xml version="1.0" encoding="UTF-8"?><svg xmlns:svg="http://www.w3.org/2000/svg" xmlns="http://www.w3.org/2000/svg" xmlns:xlink="http://www.w3.org/1999/xlink" version="1.0" ><g transform="translate(50,50)" ><rect style=" fill: rgb(225,225,225);  stroke: rgb(255,255,255);  stroke-width: 2; " x="0" y="0" height="500" width="500" /><line style=" stroke: rgb(245,245,245);  stroke-width: 1; " x1="50" y1="0" x2="50" y2="500" /><line style=" stroke: rgb(255,255,255);  stroke-width: 2; " x1="100" y1="0" x2="100" y2="500" /><line style=" stroke: rgb(245,245,245);  stroke-width: 1; " x1="150" y1="0" x2="150" y2="500" /><line style=" stroke: rgb(255,255,255);  stroke-width: 2; " x1="200" y1="0" x2="200" y2="500" /><line style=" stroke: rgb(245,245,245);  stroke-width: 1; " x1="250" y1="0" x2="250" y2="500" /><line style=" stroke: rgb(255,255,255);  stroke-width: 2; " x1="300" y1="0" x2="300" y2="500" /><line style=" stroke: rgb(245,245,245);  stroke-width: 1; " x1="350" y1="0" x2="350" y2="500" /><line style=" stroke: rgb(255,255,255);  stroke-width: 2; " x1="400" y1="0" x2="400" y2="500" /><line style=" stroke: rgb(245,245,245);  stroke-width: 1; " x1="450" y1="0" x2="450" y2="500" /><line style=" stroke: rgb(245,245,245);  stroke-width: 1; " x1="0" y1="50" x2="500" y2="50" /><line style=" stroke: rgb(255,255,255);  stroke-width: 2; " x1="0" y1="100" x2="500" y2="100" /><line style=" stroke: rgb(245,245,245);  stroke-width: 1; " x1="0" y1="150" x2="500" y2="150" /><line style=" stroke: rgb(255,255,255);  stroke-width: 2; " x1="0" y1="200" x2="500" y2="200" /><line style=" stroke: rgb(245,245,245);  stroke-width: 1; " x1="0" y1="250" x2="500" y2="250" /><line style=" stroke: rgb(255,255,255);  stroke-width: 2; " x1="0" y1="300" x2="500" y2="300" /><line style=" stroke: rgb(245,245,245);  stroke-width: 1; " x1="0" y1="350" x2="500" y2="350" /><line style=" stroke: rgb(255,255,255);  stroke-width: 2; " x1="0" y1="400" x2="500" y2="400" /><line style=" stroke: rgb(245,245,245);  stroke-width: 1; " x1="0" y1="450" x2="500" y2="450" /><text style=" font-size: 12px;  fill: rgb(150,150,150);  text-anchor: middle;  font-family: Verdana; " x="0" y="520" >0.0</text><text style=" font-size: 12px;  fill: rgb(150,150,150);  text-anchor: middle;  font-family: Verdana; " x="100" y="520" >20.0</text><text style=" font-size: 12px;  fill: rgb(150,150,150);  text-anchor: middle;  font-family: Verdana; " x="200" y="520" >40.0</text><text style=" font-size: 12px;  fill: rgb(150,150,150);  text-anchor: middle;  font-family: Verdana; " x="300" y="520" >60.0</text><text style=" font-size: 12px;  fill: rgb(150,150,150);  text-anchor: middle;  font-family: Verdana; " x="400" y="520" >80.0</text><text style=" font-size: 12px;  fill: rgb(150,150,150);  text-anchor: middle;  font-family: Verdana; " x="500" y="520" >100.0</text><text style=" font-size: 12px;  fill: rgb(150,150,150);  text-anchor: end;  alignment-baseline: middle;  font-family: Verdana; " x="0" y="400" >20.0</text><text style=" font-size: 12px;  fill: rgb(150,150,150);  text-anchor: end;  alignment-baseline: middle;  font-family: Verdana; " x="0" y="300" >40.0</text><text style=" font-size: 12px;  fill: rgb(150,150,150);  text-anchor: end;  alignment-baseline: middle;  font-family: Verdana; " x="0" y="200" >60.0</text><text style=" font-size: 12px;  fill: rgb(150,150,150);  text-anchor: end;  alignment-baseline: middle;  font-family: Verdana; " x="0" y="100" >80.0</text><text style=" font-size: 12px;  fill: rgb(150,150,150);  text-anchor: end;  alignment-baseline: middle;  font-family: Verdana; " x="0" y="0" >100.0</text><circle fill="rgb(0,0,255)" cx="70.0" cy="315.0" r="3" /><circle fill="rgb(0,0,255)" cx="345.0" cy="30.0" r="3" /><circle fill="rgb(0,0,255)" cx="10.0" cy="5.0" r="3" /><circle fill="rgb(0,0,255)" cx="495.0" cy="470.0" r="3" /><circle fill="rgb(0,0,255)" cx="400.0" cy="15.0" r="3" /><circle fill="rgb(0,0,255)" cx="295.0" cy="260.0" r="3" /><circle fill="rgb(0,0,255)" cx="90.0" cy="330.0" r="3" /><circle fill="rgb(0,0,255)" cx="485.0" cy="70.0" r="3" /><circle fill="rgb(0,0,255)" cx="200.0" cy="325.0" r="3" /><circle fill="rgb(0,0,255)" cx="205.0" cy="105.0" r="3" /><circle fill="rgb(0,0,255)" cx="35.0" cy="40.0" r="3" /><circle fill="rgb(0,0,255)" cx="160.0" cy="190.0" r="3" /><circle fill="rgb(0,0,255)" cx="440.0" cy="5.0" r="3" /><circle fill="rgb(0,0,255)" cx="215.0" cy="290.0" r="3" /><circle fill="rgb(0,0,255)" cx="265.0" cy="380.0" r="3" /><circle fill="rgb(0,0,255)" cx="350.0" cy="365.0" r="3" /><circle fill="rgb(0,0,255)" cx="475.0" cy="280.0" r="3" /><circle fill="rgb(0,0,255)" cx="255.0" cy="185.0" r="3" /><circle fill="rgb(0,0,255)" cx="225.0" cy="320.0" r="3" /><circle fill="rgb(0,0,255)" cx="330.0" cy="475.0" r="3" /><circle fill="rgb(0,0,255)" cx="5.0" cy="455.0" r="3" /><circle fill="rgb(0,0,255)" cx="395.0" cy="235.0" r="3" /><circle fill="rgb(0,0,255)" cx="265.0" cy="60.0" r="3" /><circle fill="rgb(0,0,255)" cx="450.0" cy="280.0" r="3" /><circle fill="rgb(0,0,255)" cx="190.0" cy="20.0" r="3" /></g></svg>