<?xml version="1.0" encoding="UTF-8"?><svg xmlns:svg="http://www.w3.org/2000/svg" xmlns="http://www.w3.org/2000/svg" xmlns:xlink="http://www.w3.org/1999/xlink" version="1.0" ><g transform="translate(50,50)" ><rect style=" fill: rgb(225,225,225);  stroke: rgb(255,255,255);  stroke-width: 2; " x="0" y="0" height="500" width="500" /><line style=" stroke: rgb(245,245,245);  stroke-width: 1; " x1="50" y1="0" x2="50" y2="500" /><line style=" stroke: rgb(255,255,255);  stroke-width: 2; " x1="100" y1="0" x2="100" y2="500" /><line style=" stroke: rgb(245,245,245);  stroke-width: 1; " x1="150" y1="0" x2="150" y2="500" /><line style=" stroke: rgb(255,255,255);  stroke-width: 2; " x1="200" y1="0" x2="200" y2="500" /><line style=" stroke: rgb(245,245,245);  stroke-width: 1; " x1="250" y1="0" x2="250" y2="500" /><line style=" stroke: rgb(255,255,255);  stroke-width: 2; " x1="300" y1="0" x2="300" y2="500" /><line style=" stroke: rgb(245,245,245);  stroke-width: 1; " x1="350" y1="0" x2="350" y2="500" /><line style=" stroke: rgb(255,255,255);  stroke-width: 2; " x1="400" y1="0" x2="400" y2="500" /><line style=" stroke: rgb(245,245,245);  stroke-width: 1; " x1="450" y1="0" x2="450" y2="500" /><line style=" stroke: rgb(245,245,245);  stroke-width: 1; " x1="0" y1="50" x2="500" y2="50" /><line style=" stroke: rgb(255,255,255);  stroke-width: 2; " x1="0" y1="100" x2="500" y2="100" /><line style=" stroke: rgb(245,245,245);  stroke-width: 1; " x1="0" y1="150" x2="500" y2="150" /><line style=" stroke: rgb(255,255,255);  stroke-width: 2; " x1="0" y1="200" x2="500" y2="200" /><line style=" stroke: rgb(245,245,245);  stroke-width: 1; " x1="0" y1="250" x2="500" y2="250" /><line style=" stroke: rgb(255,255,255);  stroke-width: 2; " x1="0" y1="300" x2="500" y2="300" /><line style=" stroke: rgb(245,245,245);  stroke-width: 1; " x1="0" y1="350" x2="500" y2="350" /><line style=" stroke: rgb(255,255,255);  stroke-width: 2; " x1="0" y1="400" x2="500" y2="400" /><line style=" stroke: rgb(245,245,245);  stroke-width: 1; " x1="0" y1="450" x2="500" y2="450" /><text style=" font-size: 12px;  fill: rgb(150,150,150);  text-anchor: middle;  font-family: Verdana; " x="0" y="520" >0.0</text><text style=" font-size: 12px;  fill: rgb(150,150,150);  text-anchor: middle;  font-family: Verdana; " x="100" y="520" >20.0</text><text style=" font-size: 12px;  fill: rgb(150,150,150);  text-anchor: middle;  font-family: Verdana; " x="200" y="520" >40.0</text><text style=" font-size: 12px;  fill: rgb(150,150,150);  text-anchor: middle;  font-family: Verdana; " x="300" y="520" >60.0</text><text style=" font-size: 12px;  fill: rgb(150,150,150);  text-anchor: middle;  font-family: Verdana; " x="400" y="520" >80.0</text><text style=" font-size: 12px;  fill: rgb(150,150,150);  text-anchor: middle;  font-family: Verdana; " x="500" y="520" >100.0</text><text style=" font-size: 12px;  fill: rgb(150,150,150);  text-anchor: end;  alignment-baseline: middle;  font-family: Verdana; " x="0" y="400" >20.0</text><text style=" font-size: 12px;  fill: rgb(150,150,150);  text-anchor: end;  alignment-baseline: middle;  font-family: Verdana; " x="0" y="300" >40.0</text><text style=" font-size: 12px;  fill: rgb(150,150,150);  text-anchor: end;  alignment-baseline: middle;  font-family: Verdana; " x="0" y="200" >60.0</text><text style=" font-size: 12px;  fill: rgb(150,150,150);  text-anchor: end;  alignment-baseline: middle;  font-family: Verdana; " x="0" y="100" >80.0</text><text style=" font-size: 12px;  fill: rgb(150,150,150);  text-anchor: end;  alignment-baseline: middle;  font-family: Verdana; " x="0" y="0" >100.0</text><circle fill="rgb(0,0,255)" cx="170.0" cy="335.0" r="3" /><text style=" font-size: 10px;  fill: rgb(100,100,150);  font-family: Verdana; " x="173.0" y="332.0" >34.0,33.0</text><circle fill="rgb(0,0,255)" cx="310.0" cy="275.0" r="3" /><text style=" font-size: 10px;  fill: rgb(100,100,150);  font-family: Verdana; " x="313.0" y="272.0" >62.0,45.0</text><circle fill="rgb(0,0,255)" cx="280.0" cy="95.0" r="3" /><text style=" font-size: 10px;  fill: rgb(100,100,150);  font-family: Verdana; " x="283.0" y="92.0" >56.0,81.0</text><circle fill="rgb(0,0,255)" cx="395.0" cy="115.0" r="3" /><text style=" font-size: 10px;  fill: rgb(100,100,150);  font-family: Verdana; " x="398.0" y="112.0" >79.0,77.0</text><circle fill="rgb(0,0,255)" cx="330.0" cy="90.0" r="3" /><text style=" font-size: 10px;  fill: rgb(100,100,150);  font-family: Verdana; " x="333.0" y="87.0" >66.0,82.0</text><circle fill="rgb(0,0,255)" cx="30.0" cy="35.0" r="3" /><text style=" font-size: 10px;  fill: rgb(100,100,150);  font-family: Verdana; " x="33.0" y="32.0" >6.0,93.0</text><circle fill="rgb(0,0,255)" cx="420.0" cy="495.0" r="3" /><text style=" font-size: 10px;  fill: rgb(100,100,150);  font-family: Verdana; " x="423.0" y="492.0" >84.0,1.0</text><circle fill="rgb(0,0,255)" cx="5.0" cy="10.0" r="3" /><text style=" font-size: 10px;  fill: rgb(100,100,150);  font-family: Verdana; " x="8.0" y="7.0" >1.0,98.0</text><circle fill="rgb(0,0,255)" cx="105.0" cy="425.0" r="3" /><text style=" font-size: 10px;  fill: rgb(100,100,150);  font-family: Verdana; " x="108.0" y="422.0" >21.0,15.0</text><circle fill="rgb(0,0,255)" cx="425.0" cy="165.0" r="3" /><text style=" font-size: 10px;  fill: rgb(100,100,150);  font-family: Verdana; " x="428.0" y="162.0" >85.0,67.0</text><circle fill="rgb(0,0,255)" cx="115.0" cy="105.0" r="3" /><text style=" font-size: 10px;  fill: rgb(100,100,150);  font-family: Verdana; " x="118.0" y="102.0" >23.0,79.0</text><circle fill="rgb(0,0,255)" cx="490.0" cy="490.0" r="3" /><text style=" font-size: 10px;  fill: rgb(100,100,150);  font-family: Verdana; " x="493.0" y="487.0" >98.0,2.0</text><circle fill="rgb(0,0,255)" cx="230.0" cy="495.0" r="3" /><text style=" font-size: 10px;  fill: rgb(100,100,150);  font-family: Verdana; " x="233.0" y="492.0" >46.0,1.0</text><circle fill="rgb(0,0,255)" cx="300.0" cy="335.0" r="3" /><text style=" font-size: 10px;  fill: rgb(100,100,150);  font-family: Verdana; " x="303.0" y="332.0" >60.0,33.0</text><circle fill="rgb(0,0,255)" cx="335.0" cy="140.0" r="3" /><text style=" font-size: 10px;  fill: rgb(100,100,150);  font-family: Verdana; " x="338.0" y="137.0" >67.0,72.0</text><circle fill="rgb(0,0,255)" cx="365.0" cy="15.0" r="3" /><text style=" font-size: 10px;  fill: rgb(100,100,150);  font-family: Verdana; " x="368.0" y="12.0" >73.0,97.0</text><circle fill="rgb(0,0,255)" cx="100.0" cy="25.0" r="3" /><text style=" font-size: 10px;  fill: rgb(100,100,150);  font-family: Verdana; " x="103.0" y="22.0" >20.0,95.0</text><circle fill="rgb(0,0,255)" cx="375.0" cy="95.0" r="3" /><text style=" font-size: 10px;  fill: rgb(100,100,150);  font-family: Verdana; " x="378.0" y="92.0" >75.0,81.0</text><circle fill="rgb(0,0,255)" cx="175.0" cy="130.0" r="3" /><text style=" font-size: 10px;  fill: rgb(100,100,150);  font-family: Verdana; " x="178.0" y="127.0" >35.0,74.0</text><circle fill="rgb(0,0,255)" cx="375.0" cy="5.0" r="3" /><text style=" font-size: 10px;  fill: rgb(100,100,150);  font-family: Verdana; " x="378.0" y="2.0" >75.0,99.0</text><circle fill="rgb(0,0,255)" cx="115.0" cy="15.0" r="3" /><text style=" font-size: 10px;  fill: rgb(100,100,150);  font-family: Verdana; " x="118.0" y="12.0" >23.0,97.0</text><circle fill="rgb(0,0,255)" cx="300.0" cy="300.0" r="3" /><text style=" font-size: 10px;  fill: rgb(100,100,150);  font-family: Verdana; " x="303.0" y="297.0" >60.0,40.0</text><circle fill="rgb(0,0,255)" cx="250.0" cy="465.0" r="3" /><text style=" font-size: 10px;  fill: rgb(100,100,150);  font-family: Verdana; " x="253.0" y="462.0" >50.0,7.0</text><circle fill="rgb(0,0,255)" cx="215.0" cy="460.0" r="3" /><text style=" font-size: 10px;  fill: rgb(100,100,150);  font-family: Verdana; " x="218.0" y="457.0" >43.0,8.0</text><circle fill="rgb(0,0,255)" cx="100.0" cy="95.0" r="3" /><text style=" font-size: 10px;  fill: rgb(100,100,150);  font-family: Verdana; " x="103.0" y="92.0" >20.0,81.0</text></g></svg>