<?xml version="1.0" encoding="UTF-8"?><svg xmlns:svg="http://www.w3.org/2000/svg" xmlns="http://www.w3.org/2000/svg" xmlns:xlink="http://www.w3.org/1999/xlink" version="1.0" ><g transform="translate(50,50)" ><rect style=" fill: rgb(225,225,225);  stroke: rgb(255,255,255);  stroke-width: 2; " x="0" y="0" height="200" width="450" /><line style=" stroke: rgb(245,245,245);  stroke-width: 1; " x1="45" y1="0" x2="45" y2="200" /><line style=" stroke: rgb(255,255,255);  stroke-width: 2; " x1="90" y1="0" x2="90" y2="200" /><line style=" stroke: rgb(245,245,245);  stroke-width: 1; " x1="135" y1="0" x2="135" y2="200" /><line style=" stroke: rgb(255,255,255);  stroke-width: 2; " x1="180" y1="0" x2="180" y2="200" /><line style=" stroke: rgb(245,245,245);  stroke-width: 1; " x1="225" y1="0" x2="225" y2="200" /><line style=" stroke: rgb(255,255,255);  stroke-width: 2; " x1="270" y1="0" x2="270" y2="200" /><line style=" stroke: rgb(245,245,245);  stroke-width: 1; " x1="315" y1="0" x2="315" y2="200" /><line style=" stroke: rgb(255,255,255);  stroke-width: 2; " x1="360" y1="0" x2="360" y2="200" /><line style=" stroke: rgb(245,245,245);  stroke-width: 1; " x1="405" y1="0" x2="405" y2="200" /><line style=" stroke: rgb(245,245,245);  stroke-width: 1; " x1="0" y1="20" x2="450" y2="20" /><line style=" stroke: rgb(255,255,255);  stroke-width: 2; " x1="0" y1="40" x2="450" y2="40" /><line style=" stroke: rgb(245,245,245);  stroke-width: 1; " x1="0" y1="60" x2="450" y2="60" /><line style=" stroke: rgb(255,255,255);  stroke-width: 2; " x1="0" y1="80" x2="450" y2="80" /><line style=" stroke: rgb(245,245,245);  stroke-width: 1; " x1="0" y1="100" x2="450" y2="100" /><line style=" stroke: rgb(255,255,255);  stroke-width: 2; " x1="0" y1="120" x2="450" y2="120" /><line style=" stroke: rgb(245,245,245);  stroke-width: 1; " x1="0" y1="140" x2="450" y2="140" /><line style=" stroke: rgb(255,255,255);  stroke-width: 2; " x1="0" y1="160" x2="450" y2="160" /><line style=" stroke: rgb(245,245,245);  stroke-width: 1; " x1="0" y1="180" x2="450" y2="180" /><text style=" font-size: 12px;  fill: rgb(150,150,150);  text-anchor: middle;  font-family: Verdana; " x="0" y="220" >-5.0</text><text style=" font-size: 12px;  fill: rgb(150,150,150);  text-anchor: middle;  font-family: Verdana; " x="90" y="220" >-3.0</text><text style=" font-size: 12px;  fill: rgb(150,150,150);  text-anchor: middle;  font-family: Verdana; " x="180" y="220" >-1.0</text><text style=" font-size: 12px;  fill: rgb(150,150,150);  text-anchor: middle;  font-family: Verdana; " x="270" y="220" >1.0</text><text style=" font-size: 12px;  fill: rgb(150,150,150);  text-anchor: middle;  font-family: Verdana; " x="360" y="220" >3.0</text><text style=" font-size: 12px;  fill: rgb(150,150,150);  text-anchor: middle;  font-family: Verdana; " x="450" y="220" >5.0</text><text style=" font-size: 12px;  fill: rgb(150,150,150);  text-anchor: end;  alignment-baseline: middle;  font-family: Verdana; " x="0" y="160" >-0.9</text><text style=" font-size: 12px;  fill: rgb(150,150,150);  text-anchor: end;  alignment-baseline: middle;  font-family: Verdana; " x="0" y="120" >-0.3</text><text style=" font-size: 12px;  fill: rgb(150,150,150);  text-anchor: end;  alignment-baseline: middle;  font-family: Verdana; " x="0" y="80" >0.3</text><text style=" font-size: 12px;  fill: rgb(150,150,150);  text-anchor: end;  alignment-baseline: middle;  font-family: Verdana; " x="0" y="40" >0.9</text><text style=" font-size: 12px;  fill: rgb(150,150,150);  text-anchor: end;  alignment-baseline: middle;  font-family: Verdana; " x="0" y="0" >1.5</text><circle fill="rgb(0,0,255)" cx="0.0" cy="81.08919" r="1" /><circle fill="rgb(0,0,255)" cx="2.25" cy="84.30791" r="1" /><circle fill="rgb(0,0,255)" cx="4.5" cy="87.56584" r="1" /><circle fill="rgb(0,0,255)" cx="6.75" cy="90.85486" r="1" /><circle fill="rgb(0,0,255)" cx="9.0" cy="94.16673" r="1" /><circle fill="rgb(0,0,255)" cx="11.25" cy="97.49319" r="1" /><circle fill="rgb(0,0,255)" cx="13.5" cy="100.82591" r="1" /><circle fill="rgb(0,0,255)" cx="15.75" cy="104.15657" r="1" /><circle fill="rgb(0,0,255)" cx="18.0" cy="107.47684" r="1" /><circle fill="rgb(0,0,255)" cx="20.25" cy="110.77841" r="1" /><circle fill="rgb(0,0,255)" cx="22.5" cy="114.053055" r="1" /><circle fill="rgb(0,0,255)" cx="24.75" cy="117.292564" r="1" /><circle fill="rgb(0,0,255)" cx="27.0" cy="120.48886" r="1" /><circle fill="rgb(0,0,255)" cx="29.25" cy="123.633934" r="1" /><circle fill="rgb(0,0,255)" cx="31.5" cy="126.71995" r="1" /><circle fill="rgb(0,0,255)" cx="33.75" cy="129.73917" r="1" /><circle fill="rgb(0,0,255)" cx="36.0" cy="132.68405" r="1" /><circle fill="rgb(0,0,255)" cx="38.25" cy="135.54724" r="1" /><circle fill="rgb(0,0,255)" cx="40.5" cy="138.3216" r="1" /><circle fill="rgb(0,0,255)" cx="42.75" cy="141.00015" r="1" /><circle fill="rgb(0,0,255)" cx="45.0" cy="143.57623" r="1" /><circle fill="rgb(0,0,255)" cx="47.25" cy="146.04341" r="1" /><circle fill="rgb(0,0,255)" cx="49.5" cy="148.3955" r="1" /><circle fill="rgb(0,0,255)" cx="51.75" cy="150.6266" r="1" /><circle fill="rgb(0,0,255)" cx="54.0" cy="152.73119" r="1" /><circle fill="rgb(0,0,255)" cx="56.25" cy="154.70395" r="1" /><circle fill="rgb(0,0,255)" cx="58.5" cy="156.54001" r="1" /><circle fill="rgb(0,0,255)" cx="60.75" cy="158.23473" r="1" /><circle fill="rgb(0,0,255)" cx="63.0" cy="159.78389" r="1" /><circle fill="rgb(0,0,255)" cx="65.25" cy="161.18362" r="1" /><circle fill="rgb(0,0,255)" cx="67.5" cy="162.43045" r="1" /><circle fill="rgb(0,0,255)" cx="69.75" cy="163.52121" r="1" /><circle fill="rgb(0,0,255)" cx="72.0" cy="164.45322" r="1" /><circle fill="rgb(0,0,255)" cx="74.25" cy="165.22412" r="1" /><circle fill="rgb(0,0,255)" cx="76.5" cy="165.83199" r="1" /><circle fill="rgb(0,0,255)" cx="78.75" cy="166.27531" r="1" /><circle fill="rgb(0,0,255)" cx="81.0" cy="166.55298" r="1" /><circle fill="rgb(0,0,255)" cx="83.25" cy="166.6643" r="1" /><circle fill="rgb(0,0,255)" cx="85.5" cy="166.60901" r="1" /><circle fill="rgb(0,0,255)" cx="87.75" cy="166.38722" r="1" /><circle fill="rgb(0,0,255)" cx="90.0" cy="165.9995" r="1" /><circle fill="rgb(0,0,255)" cx="92.25" cy="165.44681" r="1" /><circle fill="rgb(0,0,255)" cx="94.5" cy="164.73055" r="1" /><circle fill="rgb(0,0,255)" cx="96.75" cy="163.85248" r="1" /><circle fill="rgb(0,0,255)" cx="99.0" cy="162.81482" r="1" /><circle fill="rgb(0,0,255)" cx="101.25" cy="161.62016" r="1" /><circle fill="rgb(0,0,255)" cx="103.5" cy="160.27148" r="1" /><circle fill="rgb(0,0,255)" cx="105.75" cy="158.77216" r="1" /><circle fill="rgb(0,0,255)" cx="108.0" cy="157.12592" r="1" /><circle fill="rgb(0,0,255)" cx="110.25" cy="155.3369" r="1" /><circle fill="rgb(0,0,255)" cx="112.5" cy="153.40958" r="1" /><circle fill="rgb(0,0,255)" cx="114.75" cy="151.34875" r="1" /><circle fill="rgb(0,0,255)" cx="117.0" cy="149.15958" r="1" /><circle fill="rgb(0,0,255)" cx="119.25" cy="146.84753" r="1" /><circle fill="rgb(0,0,255)" cx="121.5" cy="144.4184" r="1" /><circle fill="rgb(0,0,255)" cx="123.75" cy="141.87823" r="1" /><circle fill="rgb(0,0,255)" cx="126.0" cy="139.2334" r="1" /><circle fill="rgb(0,0,255)" cx="128.25" cy="136.49051" r="1" /><circle fill="rgb(0,0,255)" cx="130.5" cy="133.6564" r="1" /><circle fill="rgb(0,0,255)" cx="132.75" cy="130.73819" r="1" /><circle fill="rgb(0,0,255)" cx="135.0" cy="127.743126" r="1" /><circle fill="rgb(0,0,255)" cx="137.25" cy="124.67872" r="1" /><circle fill="rgb(0,0,255)" cx="139.5" cy="121.552635" r="1" /><circle fill="rgb(0,0,255)" cx="141.75" cy="118.37268" r="1" /><circle fill="rgb(0,0,255)" cx="144.0" cy="115.146805" r="1" /><circle fill="rgb(0,0,255)" cx="146.25" cy="111.88307" r="1" /><circle fill="rgb(0,0,255)" cx="148.5" cy="108.58963" r="1" /><circle fill="rgb(0,0,255)" cx="150.75" cy="105.27473" r="1" /><circle fill="rgb(0,0,255)" cx="153.0" cy="101.94663" r="1" /><circle fill="rgb(0,0,255)" cx="155.25" cy="98.61368" r="1" /><circle fill="rgb(0,0,255)" cx="157.5" cy="95.28419" r="1" /><circle fill="rgb(0,0,255)" cx="159.75" cy="91.966484" r="1" /><circle fill="rgb(0,0,255)" cx="162.0" cy="88.66885" r="1" /><circle fill="rgb(0,0,255)" cx="164.25" cy="85.39955" r="1" /><circle fill="rgb(0,0,255)" cx="166.5" cy="82.16675" r="1" /><circle fill="rgb(0,0,255)" cx="168.75" cy="78.97851" r="1" /><circle fill="rgb(0,0,255)" cx="171.0" cy="75.84282" r="1" /><circle fill="rgb(0,0,255)" cx="173.25" cy="72.7675" r="1" /><circle fill="rgb(0,0,255)" cx="175.5" cy="69.760254" r="1" /><circle fill="rgb(0,0,255)" cx="177.75" cy="66.8286" r="1" /><circle fill="rgb(0,0,255)" cx="180.0" cy="63.979843" r="1" /><circle fill="rgb(0,0,255)" cx="182.25" cy="61.22113" r="1" /><circle fill="rgb(0,0,255)" cx="184.5" cy="58.55934" r="1" /><circle fill="rgb(0,0,255)" cx="186.75" cy="56.00113" r="1" /><circle fill="rgb(0,0,255)" cx="189.0" cy="53.552887" r="1" /><circle fill="rgb(0,0,255)" cx="191.25" cy="51.22075" r="1" /><circle fill="rgb(0,0,255)" cx="193.5" cy="49.010513" r="1" /><circle fill="rgb(0,0,255)" cx="195.75" cy="46.92775" r="1" /><circle fill="rgb(0,0,255)" cx="198.0" cy="44.97763" r="1" /><circle fill="rgb(0,0,255)" cx="200.25" cy="43.16504" r="1" /><circle fill="rgb(0,0,255)" cx="202.5" cy="41.49449" r="1" /><circle fill="rgb(0,0,255)" cx="204.75" cy="39.9702" r="1" /><circle fill="rgb(0,0,255)" cx="207.0" cy="38.595932" r="1" /><circle fill="rgb(0,0,255)" cx="209.25" cy="37.375153" r="1" /><circle fill="rgb(0,0,255)" cx="211.5" cy="36.310898" r="1" /><circle fill="rgb(0,0,255)" cx="213.75" cy="35.405838" r="1" /><circle fill="rgb(0,0,255)" cx="216.0" cy="34.66223" r="1" /><circle fill="rgb(0,0,255)" cx="218.25" cy="34.081924" r="1" /><circle fill="rgb(0,0,255)" cx="220.5" cy="33.66638" r="1" /><circle fill="rgb(0,0,255)" cx="222.75" cy="33.416656" r="1" /><circle fill="rgb(0,0,255)" cx="225.0" cy="33.33333" r="1" /><circle fill="rgb(0,0,255)" cx="227.25" cy="33.416656" r="1" /><circle fill="rgb(0,0,255)" cx="229.5" cy="33.66638" r="1" /><circle fill="rgb(0,0,255)" cx="231.75" cy="34.081924" r="1" /><circle fill="rgb(0,0,255)" cx="234.0" cy="34.66223" r="1" /><circle fill="rgb(0,0,255)" cx="236.25" cy="35.405838" r="1" /><circle fill="rgb(0,0,255)" cx="238.5" cy="36.310898" r="1" /><circle fill="rgb(0,0,255)" cx="240.75" cy="37.375153" r="1" /><circle fill="rgb(0,0,255)" cx="243.0" cy="38.595932" r="1" /><circle fill="rgb(0,0,255)" cx="245.25" cy="39.9702" r="1" /><circle fill="rgb(0,0,255)" cx="247.5" cy="41.49449" r="1" /><circle fill="rgb(0,0,255)" cx="249.75" cy="43.16504" r="1" /><circle fill="rgb(0,0,255)" cx="252.0" cy="44.97763" r="1" /><circle fill="rgb(0,0,255)" cx="254.25" cy="46.92775" r="1" /><circle fill="rgb(0,0,255)" cx="256.5" cy="49.010513" r="1" /><circle fill="rgb(0,0,255)" cx="258.75" cy="51.22075" r="1" /><circle fill="rgb(0,0,255)" cx="261.0" cy="53.552887" r="1" /><circle fill="rgb(0,0,255)" cx="263.25" cy="56.00113" r="1" /><circle fill="rgb(0,0,255)" cx="265.5" cy="58.55934" r="1" /><circle fill="rgb(0,0,255)" cx="267.75" cy="61.22113" r="1" /><circle fill="rgb(0,0,255)" cx="270.0" cy="63.979843" r="1" /><circle fill="rgb(0,0,255)" cx="272.25" cy="66.8286" r="1" /><circle fill="rgb(0,0,255)" cx="274.5" cy="69.760254" r="1" /><circle fill="rgb(0,0,255)" cx="276.75" cy="72.7675" r="1" /><circle fill="rgb(0,0,255)" cx="279.0" cy="75.84282" r="1" /><circle fill="rgb(0,0,255)" cx="281.25" cy="78.97851" r="1" /><circle fill="rgb(0,0,255)" cx="283.5" cy="82.16675" r="1" /><circle fill="rgb(0,0,255)" cx="285.75" cy="85.39955" r="1" /><circle fill="rgb(0,0,255)" cx="288.0" cy="88.66885" r="1" /><circle fill="rgb(0,0,255)" cx="290.25" cy="91.966484" r="1" /><circle fill="rgb(0,0,255)" cx="292.5" cy="95.28419" r="1" /><circle fill="rgb(0,0,255)" cx="294.75" cy="98.61368" r="1" /><circle fill="rgb(0,0,255)" cx="297.0" cy="101.94663" r="1" /><circle fill="rgb(0,0,255)" cx="299.25" cy="105.27473" r="1" /><circle fill="rgb(0,0,255)" cx="301.5" cy="108.58963" r="1" /><circle fill="rgb(0,0,255)" cx="303.75" cy="111.88307" r="1" /><circle fill="rgb(0,0,255)" cx="306.0" cy="115.146805" r="1" /><circle fill="rgb(0,0,255)" cx="308.25" cy="118.37268" r="1" /><circle fill="rgb(0,0,255)" cx="310.5" cy="121.552635" r="1" /><circle fill="rgb(0,0,255)" cx="312.75" cy="124.67872" r="1" /><circle fill="rgb(0,0,255)" cx="315.0" cy="127.743126" r="1" /><circle fill="rgb(0,0,255)" cx="317.25" cy="130.73819" r="1" /><circle fill="rgb(0,0,255)" cx="319.5" cy="133.6564" r="1" /><circle fill="rgb(0,0,255)" cx="321.75" cy="136.49051" r="1" /><circle fill="rgb(0,0,255)" cx="324.0" cy="139.2334" r="1" /><circle fill="rgb(0,0,255)" cx="326.25" cy="141.87823" r="1" /><circle fill="rgb(0,0,255)" cx="328.5" cy="144.4184" r="1" /><circle fill="rgb(0,0,255)" cx="330.75" cy="146.84753" r="1" /><circle fill="rgb(0,0,255)" cx="333.0" cy="149.15958" r="1" /><circle fill="rgb(0,0,255)" cx="335.25" cy="151.34875" r="1" /><circle fill="rgb(0,0,255)" cx="337.5" cy="153.40958" r="1" /><circle fill="rgb(0,0,255)" cx="339.75" cy="155.3369" r="1" /><circle fill="rgb(0,0,255)" cx="342.0" cy="157.12592" r="1" /><circle fill="rgb(0,0,255)" cx="344.25" cy="158.77216" r="1" /><circle fill="rgb(0,0,255)" cx="346.5" cy="160.27148" r="1" /><circle fill="rgb(0,0,255)" cx="348.75" cy="161.62016" r="1" /><circle fill="rgb(0,0,255)" cx="351.0" cy="162.81482" r="1" /><circle fill="rgb(0,0,255)" cx="353.25" cy="163.85248" r="1" /><circle fill="rgb(0,0,255)" cx="355.5" cy="164.73055" r="1" /><circle fill="rgb(0,0,255)" cx="357.75" cy="165.44681" r="1" /><circle fill="rgb(0,0,255)" cx="360.0" cy="165.9995" r="1" /><circle fill="rgb(0,0,255)" cx="362.25" cy="166.38722" r="1" /><circle fill="rgb(0,0,255)" cx="364.5" cy="166.60901" r="1" /><circle fill="rgb(0,0,255)" cx="366.75" cy="166.6643" r="1" /><circle fill="rgb(0,0,255)" cx="369.0" cy="166.55298" r="1" /><circle fill="rgb(0,0,255)" cx="371.25" cy="166.27531" r="1" /><circle fill="rgb(0,0,255)" cx="373.5" cy="165.83199" r="1" /><circle fill="rgb(0,0,255)" cx="375.75" cy="165.22412" r="1" /><circle fill="rgb(0,0,255)" cx="378.0" cy="164.45322" r="1" /><circle fill="rgb(0,0,255)" cx="380.25" cy="163.52121" r="1" /><circle fill="rgb(0,0,255)" cx="382.5" cy="162.43045" r="1" /><circle fill="rgb(0,0,255)" cx="384.75" cy="161.18362" r="1" /><circle fill="rgb(0,0,255)" cx="387.0" cy="159.78389" r="1" /><circle fill="rgb(0,0,255)" cx="389.25" cy="158.23473" r="1" /><circle fill="rgb(0,0,255)" cx="391.5" cy="156.54001" r="1" /><circle fill="rgb(0,0,255)" cx="393.75" cy="154.70395" r="1" /><circle fill="rgb(0,0,255)" cx="396.0" cy="152.73119" r="1" /><circle fill="rgb(0,0,255)" cx="398.25" cy="150.6266" r="1" /><circle fill="rgb(0,0,255)" cx="400.5" cy="148.3955" r="1" /><circle fill="rgb(0,0,255)" cx="402.75" cy="146.04341" r="1" /><circle fill="rgb(0,0,255)" cx="405.0" cy="143.57623" r="1" /><circle fill="rgb(0,0,255)" cx="407.25" cy="141.00015" r="1" /><circle fill="rgb(0,0,255)" cx="409.5" cy="138.3216" r="1" /><circle fill="rgb(0,0,255)" cx="411.75" cy="135.54724" r="1" /><circle fill="rgb(0,0,255)" cx="414.0" cy="132.68405" r="1" /><circle fill="rgb(0,0,255)" cx="416.25" cy="129.73917" r="1" /><circle fill="rgb(0,0,255)" cx="418.5" cy="126.71995" r="1" /><circle fill="rgb(0,0,255)" cx="420.75" cy="123.633934" r="1" /><circle fill="rgb(0,0,255)" cx="423.0" cy="120.48886" r="1" /><circle fill="rgb(0,0,255)" cx="425.25" cy="117.292564" r="1" /><circle fill="rgb(0,0,255)" cx="427.5" cy="114.053055" r="1" /><circle fill="rgb(0,0,255)" cx="429.75" cy="110.77841" r="1" /><circle fill="rgb(0,0,255)" cx="432.0" cy="107.47684" r="1" /><circle fill="rgb(0,0,255)" cx="434.25" cy="104.15657" r="1" /><circle fill="rgb(0,0,255)" cx="436.5" cy="100.82591" r="1" /><circle fill="rgb(0,0,255)" cx="438.75" cy="97.49319" r="1" /><circle fill="rgb(0,0,255)" cx="441.0" cy="94.16673" r="1" /><circle fill="rgb(0,0,255)" cx="443.25" cy="90.85486" r="1" /><circle fill="rgb(0,0,255)" cx="445.5" cy="87.56584" r="1" /><circle fill="rgb(0,0,255)" cx="447.75" cy="84.30791" r="1" /><circle fill="rgb(0,0,255)" cx="450.0" cy="81.08919" r="1" /><circle fill="rgb(255,0,0)" cx="0.0" cy="36.071716" r="1" /><circle fill="rgb(255,0,0)" cx="2.25" cy="35.206467" r="1" /><circle fill="rgb(255,0,0)" cx="4.5" cy="34.50316" r="1" /><circle fill="rgb(255,0,0)" cx="6.75" cy="33.963562" r="1" /><circle fill="rgb(255,0,0)" cx="9.0" cy="33.58902" r="1" /><circle fill="rgb(255,0,0)" cx="11.25" cy="33.380478" r="1" /><circle fill="rgb(255,0,0)" cx="13.5" cy="33.338455" r="1" /><circle fill="rgb(255,0,0)" cx="15.75" cy="33.463043" r="1" /><circle fill="rgb(255,0,0)" cx="18.0" cy="33.753937" r="1" /><circle fill="rgb(255,0,0)" cx="20.25" cy="34.210403" r="1" /><circle fill="rgb(255,0,0)" cx="22.5" cy="34.83133" r="1" /><circle fill="rgb(255,0,0)" cx="24.75" cy="35.615128" r="1" /><circle fill="rgb(255,0,0)" cx="27.0" cy="36.55986" r="1" /><circle fill="rgb(255,0,0)" cx="29.25" cy="37.663162" r="1" /><circle fill="rgb(255,0,0)" cx="31.5" cy="38.92227" r="1" /><circle fill="rgb(255,0,0)" cx="33.75" cy="40.334045" r="1" /><circle fill="rgb(255,0,0)" cx="36.0" cy="41.894943" r="1" /><circle fill="rgb(255,0,0)" cx="38.25" cy="43.60109" r="1" /><circle fill="rgb(255,0,0)" cx="40.5" cy="45.448196" r="1" /><circle fill="rgb(255,0,0)" cx="42.75" cy="47.431656" r="1" /><circle fill="rgb(255,0,0)" cx="45.0" cy="49.546494" r="1" /><circle fill="rgb(255,0,0)" cx="47.25" cy="51.78746" r="1" /><circle fill="rgb(255,0,0)" cx="49.5" cy="54.148926" r="1" /><circle fill="rgb(255,0,0)" cx="51.75" cy="56.624985" r="1" /><circle fill="rgb(255,0,0)" cx="54.0" cy="59.209473" r="1" /><circle fill="rgb(255,0,0)" cx="56.25" cy="61.895905" r="1" /><circle fill="rgb(255,0,0)" cx="58.5" cy="64.6776" r="1" /><circle fill="rgb(255,0,0)" cx="60.75" cy="67.54756" r="1" /><circle fill="rgb(255,0,0)" cx="63.0" cy="70.49864" r="1" /><circle fill="rgb(255,0,0)" cx="65.25" cy="73.52345" r="1" /><circle fill="rgb(255,0,0)" cx="67.5" cy="76.61445" r="1" /><circle fill="rgb(255,0,0)" cx="69.75" cy="79.7639" r="1" /><circle fill="rgb(255,0,0)" cx="72.0" cy="82.96393" r="1" /><circle fill="rgb(255,0,0)" cx="74.25" cy="86.206535" r="1" /><circle fill="rgb(255,0,0)" cx="76.5" cy="89.48362" r="1" /><circle fill="rgb(255,0,0)" cx="78.75" cy="92.78699" r="1" /><circle fill="rgb(255,0,0)" cx="81.0" cy="96.10839" r="1" /><circle fill="rgb(255,0,0)" cx="83.25" cy="99.439514" r="1" /><circle fill="rgb(255,0,0)" cx="85.5" cy="102.77204" r="1" /><circle fill="rgb(255,0,0)" cx="87.75" cy="106.09764" r="1" /><circle fill="rgb(255,0,0)" cx="90.0" cy="109.408" r="1" /><circle fill="rgb(255,0,0)" cx="92.25" cy="112.69484" r="1" /><circle fill="rgb(255,0,0)" cx="94.5" cy="115.94996" r="1" /><circle fill="rgb(255,0,0)" cx="96.75" cy="119.1652" r="1" /><circle fill="rgb(255,0,0)" cx="99.0" cy="122.33254" r="1" /><circle fill="rgb(255,0,0)" cx="101.25" cy="125.44407" r="1" /><circle fill="rgb(255,0,0)" cx="103.5" cy="128.49199" r="1" /><circle fill="rgb(255,0,0)" cx="105.75" cy="131.4687" r="1" /><circle fill="rgb(255,0,0)" cx="108.0" cy="134.36676" r="1" /><circle fill="rgb(255,0,0)" cx="110.25" cy="137.17891" r="1" /><circle fill="rgb(255,0,0)" cx="112.5" cy="139.89815" r="1" /><circle fill="rgb(255,0,0)" cx="114.75" cy="142.51764" r="1" /><circle fill="rgb(255,0,0)" cx="117.0" cy="145.03088" r="1" /><circle fill="rgb(255,0,0)" cx="119.25" cy="147.43155" r="1" /><circle fill="rgb(255,0,0)" cx="121.5" cy="149.71368" r="1" /><circle fill="rgb(255,0,0)" cx="123.75" cy="151.87155" r="1" /><circle fill="rgb(255,0,0)" cx="126.0" cy="153.89977" r="1" /><circle fill="rgb(255,0,0)" cx="128.25" cy="155.79324" r="1" /><circle fill="rgb(255,0,0)" cx="130.5" cy="157.54729" r="1" /><circle fill="rgb(255,0,0)" cx="132.75" cy="159.15749" r="1" /><circle fill="rgb(255,0,0)" cx="135.0" cy="160.61983" r="1" /><circle fill="rgb(255,0,0)" cx="137.25" cy="161.93065" r="1" /><circle fill="rgb(255,0,0)" cx="139.5" cy="163.08667" r="1" /><circle fill="rgb(255,0,0)" cx="141.75" cy="164.08502" r="1" /><circle fill="rgb(255,0,0)" cx="144.0" cy="164.92317" r="1" /><circle fill="rgb(255,0,0)" cx="146.25" cy="165.59906" r="1" /><circle fill="rgb(255,0,0)" cx="148.5" cy="166.111" r="1" /><circle fill="rgb(255,0,0)" cx="150.75" cy="166.45767" r="1" /><circle fill="rgb(255,0,0)" cx="153.0" cy="166.63824" r="1" /><circle fill="rgb(255,0,0)" cx="155.25" cy="166.65225" r="1" /><circle fill="rgb(255,0,0)" cx="157.5" cy="166.49966" r="1" /><circle fill="rgb(255,0,0)" cx="159.75" cy="166.18086" r="1" /><circle fill="rgb(255,0,0)" cx="162.0" cy="165.69666" r="1" /><circle fill="rgb(255,0,0)" cx="164.25" cy="165.04822" r="1" /><circle fill="rgb(255,0,0)" cx="166.5" cy="164.23721" r="1" /><circle fill="rgb(255,0,0)" cx="168.75" cy="163.26564" r="1" /><circle fill="rgb(255,0,0)" cx="171.0" cy="162.13594" r="1" /><circle fill="rgb(255,0,0)" cx="173.25" cy="160.85092" r="1" /><circle fill="rgb(255,0,0)" cx="175.5" cy="159.41382" r="1" /><circle fill="rgb(255,0,0)" cx="177.75" cy="157.82822" r="1" /><circle fill="rgb(255,0,0)" cx="180.0" cy="156.09807" r="1" /><circle fill="rgb(255,0,0)" cx="182.25" cy="154.22769" r="1" /><circle fill="rgb(255,0,0)" cx="184.5" cy="152.2218" r="1" /><circle fill="rgb(255,0,0)" cx="186.75" cy="150.08536" r="1" /><circle fill="rgb(255,0,0)" cx="189.0" cy="147.82373" r="1" /><circle fill="rgb(255,0,0)" cx="191.25" cy="145.44258" r="1" /><circle fill="rgb(255,0,0)" cx="193.5" cy="142.94785" r="1" /><circle fill="rgb(255,0,0)" cx="195.75" cy="140.34576" r="1" /><circle fill="rgb(255,0,0)" cx="198.0" cy="137.64282" r="1" /><circle fill="rgb(255,0,0)" cx="200.25" cy="134.84583" r="1" /><circle fill="rgb(255,0,0)" cx="202.5" cy="131.9617" r="1" /><circle fill="rgb(255,0,0)" cx="204.75" cy="128.99771" r="1" /><circle fill="rgb(255,0,0)" cx="207.0" cy="125.96122" r="1" /><circle fill="rgb(255,0,0)" cx="209.25" cy="122.859856" r="1" /><circle fill="rgb(255,0,0)" cx="211.5" cy="119.70135" r="1" /><circle fill="rgb(255,0,0)" cx="213.75" cy="116.4936" r="1" /><circle fill="rgb(255,0,0)" cx="216.0" cy="113.24462" r="1" /><circle fill="rgb(255,0,0)" cx="218.25" cy="109.96254" r="1" /><circle fill="rgb(255,0,0)" cx="220.5" cy="106.65556" r="1" /><circle fill="rgb(255,0,0)" cx="222.75" cy="103.33195" r="1" /><circle fill="rgb(255,0,0)" cx="225.0" cy="100.0" r="1" /><circle fill="rgb(255,0,0)" cx="227.25" cy="96.66805" r="1" /><circle fill="rgb(255,0,0)" cx="229.5" cy="93.34444" r="1" /><circle fill="rgb(255,0,0)" cx="231.75" cy="90.03746" r="1" /><circle fill="rgb(255,0,0)" cx="234.0" cy="86.75538" r="1" /><circle fill="rgb(255,0,0)" cx="236.25" cy="83.5064" r="1" /><circle fill="rgb(255,0,0)" cx="238.5" cy="80.29865" r="1" /><circle fill="rgb(255,0,0)" cx="240.75" cy="77.140144" r="1" /><circle fill="rgb(255,0,0)" cx="243.0" cy="74.03878" r="1" /><circle fill="rgb(255,0,0)" cx="245.25" cy="71.002304" r="1" /><circle fill="rgb(255,0,0)" cx="247.5" cy="68.0383" r="1" /><circle fill="rgb(255,0,0)" cx="249.75" cy="65.15419" r="1" /><circle fill="rgb(255,0,0)" cx="252.0" cy="62.357162" r="1" /><circle fill="rgb(255,0,0)" cx="254.25" cy="59.654236" r="1" /><circle fill="rgb(255,0,0)" cx="256.5" cy="57.052155" r="1" /><circle fill="rgb(255,0,0)" cx="258.75" cy="54.55742" r="1" /><circle fill="rgb(255,0,0)" cx="261.0" cy="52.176254" r="1" /><circle fill="rgb(255,0,0)" cx="263.25" cy="49.914642" r="1" /><circle fill="rgb(255,0,0)" cx="265.5" cy="47.778214" r="1" /><circle fill="rgb(255,0,0)" cx="267.75" cy="45.772293" r="1" /><circle fill="rgb(255,0,0)" cx="270.0" cy="43.90193" r="1" /><circle fill="rgb(255,0,0)" cx="272.25" cy="42.171783" r="1" /><circle fill="rgb(255,0,0)" cx="274.5" cy="40.58618" r="1" /><circle fill="rgb(255,0,0)" cx="276.75" cy="39.149063" r="1" /><circle fill="rgb(255,0,0)" cx="279.0" cy="37.86406" r="1" /><circle fill="rgb(255,0,0)" cx="281.25" cy="36.73436" r="1" /><circle fill="rgb(255,0,0)" cx="283.5" cy="35.762787" r="1" /><circle fill="rgb(255,0,0)" cx="285.75" cy="34.951782" r="1" /><circle fill="rgb(255,0,0)" cx="288.0" cy="34.303345" r="1" /><circle fill="rgb(255,0,0)" cx="290.25" cy="33.819138" r="1" /><circle fill="rgb(255,0,0)" cx="292.5" cy="33.500336" r="1" /><circle fill="rgb(255,0,0)" cx="294.75" cy="33.347748" r="1" /><circle fill="rgb(255,0,0)" cx="297.0" cy="33.361755" r="1" /><circle fill="rgb(255,0,0)" cx="299.25" cy="33.542328" r="1" /><circle fill="rgb(255,0,0)" cx="301.5" cy="33.889008" r="1" /><circle fill="rgb(255,0,0)" cx="303.75" cy="34.40094" r="1" /><circle fill="rgb(255,0,0)" cx="306.0" cy="35.076828" r="1" /><circle fill="rgb(255,0,0)" cx="308.25" cy="35.914993" r="1" /><circle fill="rgb(255,0,0)" cx="310.5" cy="36.91333" r="1" /><circle fill="rgb(255,0,0)" cx="312.75" cy="38.06935" r="1" /><circle fill="rgb(255,0,0)" cx="315.0" cy="39.380173" r="1" /><circle fill="rgb(255,0,0)" cx="317.25" cy="40.842514" r="1" /><circle fill="rgb(255,0,0)" cx="319.5" cy="42.452713" r="1" /><circle fill="rgb(255,0,0)" cx="321.75" cy="44.20674" r="1" /><circle fill="rgb(255,0,0)" cx="324.0" cy="46.100235" r="1" /><circle fill="rgb(255,0,0)" cx="326.25" cy="48.12845" r="1" /><circle fill="rgb(255,0,0)" cx="328.5" cy="50.286316" r="1" /><circle fill="rgb(255,0,0)" cx="330.75" cy="52.568436" r="1" /><circle fill="rgb(255,0,0)" cx="333.0" cy="54.969116" r="1" /><circle fill="rgb(255,0,0)" cx="335.25" cy="57.482346" r="1" /><circle fill="rgb(255,0,0)" cx="337.5" cy="60.101852" r="1" /><circle fill="rgb(255,0,0)" cx="339.75" cy="62.82109" r="1" /><circle fill="rgb(255,0,0)" cx="342.0" cy="65.63324" r="1" /><circle fill="rgb(255,0,0)" cx="344.25" cy="68.531296" r="1" /><circle fill="rgb(255,0,0)" cx="346.5" cy="71.50801" r="1" /><circle fill="rgb(255,0,0)" cx="348.75" cy="74.55593" r="1" /><circle fill="rgb(255,0,0)" cx="351.0" cy="77.66746" r="1" /><circle fill="rgb(255,0,0)" cx="353.25" cy="80.8348" r="1" /><circle fill="rgb(255,0,0)" cx="355.5" cy="84.05004" r="1" /><circle fill="rgb(255,0,0)" cx="357.75" cy="87.30516" r="1" /><circle fill="rgb(255,0,0)" cx="360.0" cy="90.592" r="1" /><circle fill="rgb(255,0,0)" cx="362.25" cy="93.90236" r="1" /><circle fill="rgb(255,0,0)" cx="364.5" cy="97.22796" r="1" /><circle fill="rgb(255,0,0)" cx="366.75" cy="100.560486" r="1" /><circle fill="rgb(255,0,0)" cx="369.0" cy="103.89161" r="1" /><circle fill="rgb(255,0,0)" cx="371.25" cy="107.21301" r="1" /><circle fill="rgb(255,0,0)" cx="373.5" cy="110.51638" r="1" /><circle fill="rgb(255,0,0)" cx="375.75" cy="113.793465" r="1" /><circle fill="rgb(255,0,0)" cx="378.0" cy="117.03607" r="1" /><circle fill="rgb(255,0,0)" cx="380.25" cy="120.2361" r="1" /><circle fill="rgb(255,0,0)" cx="382.5" cy="123.38555" r="1" /><circle fill="rgb(255,0,0)" cx="384.75" cy="126.47655" r="1" /><circle fill="rgb(255,0,0)" cx="387.0" cy="129.50137" r="1" /><circle fill="rgb(255,0,0)" cx="389.25" cy="132.45245" r="1" /><circle fill="rgb(255,0,0)" cx="391.5" cy="135.32242" r="1" /><circle fill="rgb(255,0,0)" cx="393.75" cy="138.1041" r="1" /><circle fill="rgb(255,0,0)" cx="396.0" cy="140.79053" r="1" /><circle fill="rgb(255,0,0)" cx="398.25" cy="143.375" r="1" /><circle fill="rgb(255,0,0)" cx="400.5" cy="145.85107" r="1" /><circle fill="rgb(255,0,0)" cx="402.75" cy="148.21254" r="1" /><circle fill="rgb(255,0,0)" cx="405.0" cy="150.45349" r="1" /><circle fill="rgb(255,0,0)" cx="407.25" cy="152.56836" r="1" /><circle fill="rgb(255,0,0)" cx="409.5" cy="154.5518" r="1" /><circle fill="rgb(255,0,0)" cx="411.75" cy="156.39891" r="1" /><circle fill="rgb(255,0,0)" cx="414.0" cy="158.10506" r="1" /><circle fill="rgb(255,0,0)" cx="416.25" cy="159.66595" r="1" /><circle fill="rgb(255,0,0)" cx="418.5" cy="161.07773" r="1" /><circle fill="rgb(255,0,0)" cx="420.75" cy="162.33684" r="1" /><circle fill="rgb(255,0,0)" cx="423.0" cy="163.44014" r="1" /><circle fill="rgb(255,0,0)" cx="425.25" cy="164.38487" r="1" /><circle fill="rgb(255,0,0)" cx="427.5" cy="165.16867" r="1" /><circle fill="rgb(255,0,0)" cx="429.75" cy="165.78958" r="1" /><circle fill="rgb(255,0,0)" cx="432.0" cy="166.24606" r="1" /><circle fill="rgb(255,0,0)" cx="434.25" cy="166.53696" r="1" /><circle fill="rgb(255,0,0)" cx="436.5" cy="166.66154" r="1" /><circle fill="rgb(255,0,0)" cx="438.75" cy="166.61952" r="1" /><circle fill="rgb(255,0,0)" cx="441.0" cy="166.41098" r="1" /><circle fill="rgb(255,0,0)" cx="443.25" cy="166.03644" r="1" /><circle fill="rgb(255,0,0)" cx="445.5" cy="165.49684" r="1" /><circle fill="rgb(255,0,0)" cx="447.75" cy="164.79353" r="1" /><circle fill="rgb(255,0,0)" cx="450.0" cy="163.92828" r="1" /></g></svg>