<?xml version="1.0" encoding="UTF-8"?><svg xmlns:svg="http://www.w3.org/2000/svg" xmlns="http://www.w3.org/2000/svg" xmlns:xlink="http://www.w3.org/1999/xlink" version="1.0" ><g transform="translate(50,50)" ><rect style=" fill: rgb(225,225,225);  stroke: rgb(255,255,255);  stroke-width: 2; " x="0" y="0" height="500" width="750" /><line style=" stroke: rgb(245,245,245);  stroke-width: 1; " x1="75" y1="0" x2="75" y2="500" /><line style=" stroke: rgb(255,255,255);  stroke-width: 2; " x1="150" y1="0" x2="150" y2="500" /><line style=" stroke: rgb(245,245,245);  stroke-width: 1; " x1="225" y1="0" x2="225" y2="500" /><line style=" stroke: rgb(255,255,255);  stroke-width: 2; " x1="300" y1="0" x2="300" y2="500" /><line style=" stroke: rgb(245,245,245);  stroke-width: 1; " x1="375" y1="0" x2="375" y2="500" /><line style=" stroke: rgb(255,255,255);  stroke-width: 2; " x1="450" y1="0" x2="450" y2="500" /><line style=" stroke: rgb(245,245,245);  stroke-width: 1; " x1="525" y1="0" x2="525" y2="500" /><line style=" stroke: rgb(255,255,255);  stroke-width: 2; " x1="600" y1="0" x2="600" y2="500" /><line style=" stroke: rgb(245,245,245);  stroke-width: 1; " x1="675" y1="0" x2="675" y2="500" /><line style=" stroke: rgb(245,245,245);  stroke-width: 1; " x1="0" y1="50" x2="750" y2="50" /><line style=" stroke: rgb(255,255,255);  stroke-width: 2; " x1="0" y1="100" x2="750" y2="100" /><line style=" stroke: rgb(245,245,245);  stroke-width: 1; " x1="0" y1="150" x2="750" y2="150" /><line style=" stroke: rgb(255,255,255);  stroke-width: 2; " x1="0" y1="200" x2="750" y2="200" /><line style=" stroke: rgb(245,245,245);  stroke-width: 1; " x1="0" y1="250" x2="750" y2="250" /><line style=" stroke: rgb(255,255,255);  stroke-width: 2; " x1="0" y1="300" x2="750" y2="300" /><line style=" stroke: rgb(245,245,245);  stroke-width: 1; " x1="0" y1="350" x2="750" y2="350" /><line style=" stroke: rgb(255,255,255);  stroke-width: 2; " x1="0" y1="400" x2="750" y2="400" /><line style=" stroke: rgb(245,245,245);  stroke-width: 1; " x1="0" y1="450" x2="750" y2="450" /><text style=" font-size: 12px;  fill: rgb(150,150,150);  text-anchor: middle;  font-family: Verdana; " x="0" y="520" >-5.0</text><text style=" font-size: 12px;  fill: rgb(150,150,150);  text-anchor: middle;  font-family: Verdana; " x="150" y="520" >-3.0</text><text style=" font-size: 12px;  fill: rgb(150,150,150);  text-anchor: middle;  font-family: Verdana; " x="300" y="520" >-1.0</text><text style=" font-size: 12px;  fill: rgb(150,150,150);  text-anchor: middle;  font-family: Verdana; " x="450" y="520" >1.0</text><text style=" font-size: 12px;  fill: rgb(150,150,150);  text-anchor: middle;  font-family: Verdana; " x="600" y="520" >3.0</text><text style=" font-size: 12px;  fill: rgb(150,150,150);  text-anchor: middle;  font-family: Verdana; " x="750" y="520" >5.0</text><text style=" font-size: 12px;  fill: rgb(150,150,150);  text-anchor: end;  alignment-baseline: middle;  font-family: Verdana; " x="0" y="400" >-0.9</text><text style=" font-size: 12px;  fill: rgb(150,150,150);  text-anchor: end;  alignment-baseline: middle;  font-family: Verdana; " x="0" y="300" >-0.3</text><text style=" font-size: 12px;  fill: rgb(150,150,150);  text-anchor: end;  alignment-baseline: middle;  font-family: Verdana; " x="0" y="200" >0.3</text><text style=" font-size: 12px;  fill: rgb(150,150,150);  text-anchor: end;  alignment-baseline: middle;  font-family: Verdana; " x="0" y="100" >0.9</text><text style=" font-size: 12px;  fill: rgb(150,150,150);  text-anchor: end;  alignment-baseline: middle;  font-family: Verdana; " x="0" y="0" >1.5</text><circle fill="rgb(0,0,255)" cx="0.0" cy="202.72296" r="3" /><circle fill="rgb(0,0,255)" cx="3.75" cy="210.76974" r="3" /><circle fill="rgb(0,0,255)" cx="7.5" cy="218.91461" r="3" /><circle fill="rgb(0,0,255)" cx="11.25" cy="227.13715" r="3" /><circle fill="rgb(0,0,255)" cx="15.0" cy="235.41684" r="3" /><circle fill="rgb(0,0,255)" cx="18.75" cy="243.73297" r="3" /><circle fill="rgb(0,0,255)" cx="22.5" cy="252.06477" r="3" /><circle fill="rgb(0,0,255)" cx="26.25" cy="260.39142" r="3" /><circle fill="rgb(0,0,255)" cx="30.0" cy="268.69208" r="3" /><circle fill="rgb(0,0,255)" cx="33.75" cy="276.94604" r="3" /><circle fill="rgb(0,0,255)" cx="37.5" cy="285.13263" r="3" /><circle fill="rgb(0,0,255)" cx="41.25" cy="293.2314" r="3" /><circle fill="rgb(0,0,255)" cx="45.0" cy="301.22214" r="3" /><circle fill="rgb(0,0,255)" cx="48.75" cy="309.08484" r="3" /><circle fill="rgb(0,0,255)" cx="52.5" cy="316.79987" r="3" /><circle fill="rgb(0,0,255)" cx="56.25" cy="324.3479" r="3" /><circle fill="rgb(0,0,255)" cx="60.0" cy="331.71014" r="3" /><circle fill="rgb(0,0,255)" cx="63.75" cy="338.86813" r="3" /><circle fill="rgb(0,0,255)" cx="67.5" cy="345.804" r="3" /><circle fill="rgb(0,0,255)" cx="71.25" cy="352.5004" r="3" /><circle fill="rgb(0,0,255)" cx="75.0" cy="358.9406" r="3" /><circle fill="rgb(0,0,255)" cx="78.75" cy="365.10852" r="3" /><circle fill="rgb(0,0,255)" cx="82.5" cy="370.9887" r="3" /><circle fill="rgb(0,0,255)" cx="86.25" cy="376.56653" r="3" /><circle fill="rgb(0,0,255)" cx="90.0" cy="381.82794" r="3" /><circle fill="rgb(0,0,255)" cx="93.75" cy="386.7599" r="3" /><circle fill="rgb(0,0,255)" cx="97.5" cy="391.35" r="3" /><circle fill="rgb(0,0,255)" cx="101.25" cy="395.58682" r="3" /><circle fill="rgb(0,0,255)" cx="105.0" cy="399.45975" r="3" /><circle fill="rgb(0,0,255)" cx="108.75" cy="402.95908" r="3" /><circle fill="rgb(0,0,255)" cx="112.5" cy="406.0761" r="3" /><circle fill="rgb(0,0,255)" cx="116.25" cy="408.80304" r="3" /><circle fill="rgb(0,0,255)" cx="120.0" cy="411.13303" r="3" /><circle fill="rgb(0,0,255)" cx="123.75" cy="413.06027" r="3" /><circle fill="rgb(0,0,255)" cx="127.5" cy="414.57996" r="3" /><circle fill="rgb(0,0,255)" cx="131.25" cy="415.6883" r="3" /><circle fill="rgb(0,0,255)" cx="135.0" cy="416.38245" r="3" /><circle fill="rgb(0,0,255)" cx="138.75" cy="416.66077" r="3" /><circle fill="rgb(0,0,255)" cx="142.5" cy="416.52252" r="3" /><circle fill="rgb(0,0,255)" cx="146.25" cy="415.96805" r="3" /><circle fill="rgb(0,0,255)" cx="150.0" cy="414.99875" r="3" /><circle fill="rgb(0,0,255)" cx="153.75" cy="413.61703" r="3" /><circle fill="rgb(0,0,255)" cx="157.5" cy="411.82635" r="3" /><circle fill="rgb(0,0,255)" cx="161.25" cy="409.6312" r="3" /><circle fill="rgb(0,0,255)" cx="165.0" cy="407.03705" r="3" /><circle fill="rgb(0,0,255)" cx="168.75" cy="404.0504" r="3" /><circle fill="rgb(0,0,255)" cx="172.5" cy="400.67868" r="3" /><circle fill="rgb(0,0,255)" cx="176.25" cy="396.93036" r="3" /><circle fill="rgb(0,0,255)" cx="180.0" cy="392.8148" r="3" /><circle fill="rgb(0,0,255)" cx="183.75" cy="388.34225" r="3" /><circle fill="rgb(0,0,255)" cx="187.5" cy="383.52393" r="3" /><circle fill="rgb(0,0,255)" cx="191.25" cy="378.3719" r="3" /><circle fill="rgb(0,0,255)" cx="195.0" cy="372.89896" r="3" /><circle fill="rgb(0,0,255)" cx="198.75" cy="367.11884" r="3" /><circle fill="rgb(0,0,255)" cx="202.5" cy="361.04602" r="3" /><circle fill="rgb(0,0,255)" cx="206.25" cy="354.69562" r="3" /><circle fill="rgb(0,0,255)" cx="210.0" cy="348.08353" r="3" /><circle fill="rgb(0,0,255)" cx="213.75" cy="341.22626" r="3" /><circle fill="rgb(0,0,255)" cx="217.5" cy="334.14102" r="3" /><circle fill="rgb(0,0,255)" cx="221.25" cy="326.84546" r="3" /><circle fill="rgb(0,0,255)" cx="225.0" cy="319.3578" r="3" /><circle fill="rgb(0,0,255)" cx="228.75" cy="311.6968" r="3" /><circle fill="rgb(0,0,255)" cx="232.5" cy="303.8816" r="3" /><circle fill="rgb(0,0,255)" cx="236.25" cy="295.9317" r="3" /><circle fill="rgb(0,0,255)" cx="240.0" cy="287.867" r="3" /><circle fill="rgb(0,0,255)" cx="243.75" cy="279.70767" r="3" /><circle fill="rgb(0,0,255)" cx="247.5" cy="271.47406" r="3" /><circle fill="rgb(0,0,255)" cx="251.25" cy="263.18683" r="3" /><circle fill="rgb(0,0,255)" cx="255.0" cy="254.8666" r="3" /><circle fill="rgb(0,0,255)" cx="258.75" cy="246.5342" r="3" /><circle fill="rgb(0,0,255)" cx="262.5" cy="238.21048" r="3" /><circle fill="rgb(0,0,255)" cx="266.25" cy="229.9162" r="3" /><circle fill="rgb(0,0,255)" cx="270.0" cy="221.67215" r="3" /><circle fill="rgb(0,0,255)" cx="273.75" cy="213.49887" r="3" /><circle fill="rgb(0,0,255)" cx="277.5" cy="205.41687" r="3" /><circle fill="rgb(0,0,255)" cx="281.25" cy="197.44626" r="3" /><circle fill="rgb(0,0,255)" cx="285.0" cy="189.60706" r="3" /><circle fill="rgb(0,0,255)" cx="288.75" cy="181.91876" r="3" /><circle fill="rgb(0,0,255)" cx="292.5" cy="174.40063" r="3" /><circle fill="rgb(0,0,255)" cx="296.25" cy="167.0715" r="3" /><circle fill="rgb(0,0,255)" cx="300.0" cy="159.94962" r="3" /><circle fill="rgb(0,0,255)" cx="303.75" cy="153.05283" r="3" /><circle fill="rgb(0,0,255)" cx="307.5" cy="146.39835" r="3" /><circle fill="rgb(0,0,255)" cx="311.25" cy="140.0028" r="3" /><circle fill="rgb(0,0,255)" cx="315.0" cy="133.8822" r="3" /><circle fill="rgb(0,0,255)" cx="318.75" cy="128.05185" r="3" /><circle fill="rgb(0,0,255)" cx="322.5" cy="122.526306" r="3" /><circle fill="rgb(0,0,255)" cx="326.25" cy="117.31937" r="3" /><circle fill="rgb(0,0,255)" cx="330.0" cy="112.44406" r="3" /><circle fill="rgb(0,0,255)" cx="333.75" cy="107.91257" r="3" /><circle fill="rgb(0,0,255)" cx="337.5" cy="103.73624" r="3" /><circle fill="rgb(0,0,255)" cx="341.25" cy="99.925476" r="3" /><circle fill="rgb(0,0,255)" cx="345.0" cy="96.48984" r="3" /><circle fill="rgb(0,0,255)" cx="348.75" cy="93.43787" r="3" /><circle fill="rgb(0,0,255)" cx="352.5" cy="90.77725" r="3" /><circle fill="rgb(0,0,255)" cx="356.25" cy="88.51459" r="3" /><circle fill="rgb(0,0,255)" cx="360.0" cy="86.65558" r="3" /><circle fill="rgb(0,0,255)" cx="363.75" cy="85.204834" r="3" /><circle fill="rgb(0,0,255)" cx="367.5" cy="84.165985" r="3" /><circle fill="rgb(0,0,255)" cx="371.25" cy="83.541626" r="3" /><circle fill="rgb(0,0,255)" cx="375.0" cy="83.33334" r="3" /><circle fill="rgb(0,0,255)" cx="378.75" cy="83.541626" r="3" /><circle fill="rgb(0,0,255)" cx="382.5" cy="84.165985" r="3" /><circle fill="rgb(0,0,255)" cx="386.25" cy="85.204834" r="3" /><circle fill="rgb(0,0,255)" cx="390.0" cy="86.65558" r="3" /><circle fill="rgb(0,0,255)" cx="393.75" cy="88.51459" r="3" /><circle fill="rgb(0,0,255)" cx="397.5" cy="90.77725" r="3" /><circle fill="rgb(0,0,255)" cx="401.25" cy="93.43787" r="3" /><circle fill="rgb(0,0,255)" cx="405.0" cy="96.48984" r="3" /><circle fill="rgb(0,0,255)" cx="408.75" cy="99.925476" r="3" /><circle fill="rgb(0,0,255)" cx="412.5" cy="103.73624" r="3" /><circle fill="rgb(0,0,255)" cx="416.25" cy="107.91257" r="3" /><circle fill="rgb(0,0,255)" cx="420.0" cy="112.44406" r="3" /><circle fill="rgb(0,0,255)" cx="423.75" cy="117.31937" r="3" /><circle fill="rgb(0,0,255)" cx="427.5" cy="122.526306" r="3" /><circle fill="rgb(0,0,255)" cx="431.25" cy="128.05185" r="3" /><circle fill="rgb(0,0,255)" cx="435.0" cy="133.8822" r="3" /><circle fill="rgb(0,0,255)" cx="438.75" cy="140.0028" r="3" /><circle fill="rgb(0,0,255)" cx="442.5" cy="146.39835" r="3" /><circle fill="rgb(0,0,255)" cx="446.25" cy="153.05283" r="3" /><circle fill="rgb(0,0,255)" cx="450.0" cy="159.94962" r="3" /><circle fill="rgb(0,0,255)" cx="453.75" cy="167.0715" r="3" /><circle fill="rgb(0,0,255)" cx="457.5" cy="174.40063" r="3" /><circle fill="rgb(0,0,255)" cx="461.25" cy="181.91876" r="3" /><circle fill="rgb(0,0,255)" cx="465.0" cy="189.60706" r="3" /><circle fill="rgb(0,0,255)" cx="468.75" cy="197.44626" r="3" /><circle fill="rgb(0,0,255)" cx="472.5" cy="205.41687" r="3" /><circle fill="rgb(0,0,255)" cx="476.25" cy="213.49887" r="3" /><circle fill="rgb(0,0,255)" cx="480.0" cy="221.67215" r="3" /><circle fill="rgb(0,0,255)" cx="483.75" cy="229.9162" r="3" /><circle fill="rgb(0,0,255)" cx="487.5" cy="238.21048" r="3" /><circle fill="rgb(0,0,255)" cx="491.25" cy="246.5342" r="3" /><circle fill="rgb(0,0,255)" cx="495.0" cy="254.8666" r="3" /><circle fill="rgb(0,0,255)" cx="498.75" cy="263.18683" r="3" /><circle fill="rgb(0,0,255)" cx="502.5" cy="271.47406" r="3" /><circle fill="rgb(0,0,255)" cx="506.25" cy="279.70767" r="3" /><circle fill="rgb(0,0,255)" cx="510.0" cy="287.867" r="3" /><circle fill="rgb(0,0,255)" cx="513.75" cy="295.9317" r="3" /><circle fill="rgb(0,0,255)" cx="517.5" cy="303.8816" r="3" /><circle fill="rgb(0,0,255)" cx="521.25" cy="311.6968" r="3" /><circle fill="rgb(0,0,255)" cx="525.0" cy="319.3578" r="3" /><circle fill="rgb(0,0,255)" cx="528.75" cy="326.84546" r="3" /><circle fill="rgb(0,0,255)" cx="532.5" cy="334.14102" r="3" /><circle fill="rgb(0,0,255)" cx="536.25" cy="341.22626" r="3" /><circle fill="rgb(0,0,255)" cx="540.0" cy="348.08353" r="3" /><circle fill="rgb(0,0,255)" cx="543.75" cy="354.69562" r="3" /><circle fill="rgb(0,0,255)" cx="547.5" cy="361.04602" r="3" /><circle fill="rgb(0,0,255)" cx="551.25" cy="367.11884" r="3" /><circle fill="rgb(0,0,255)" cx="555.0" cy="372.89896" r="3" /><circle fill="rgb(0,0,255)" cx="558.75" cy="378.3719" r="3" /><circle fill="rgb(0,0,255)" cx="562.5" cy="383.52393" r="3" /><circle fill="rgb(0,0,255)" cx="566.25" cy="388.34225" r="3" /><circle fill="rgb(0,0,255)" cx="570.0" cy="392.8148" r="3" /><circle fill="rgb(0,0,255)" cx="573.75" cy="396.93036" r="3" /><circle fill="rgb(0,0,255)" cx="577.5" cy="400.67868" r="3" /><circle fill="rgb(0,0,255)" cx="581.25" cy="404.0504" r="3" /><circle fill="rgb(0,0,255)" cx="585.0" cy="407.03705" r="3" /><circle fill="rgb(0,0,255)" cx="588.75" cy="409.6312" r="3" /><circle fill="rgb(0,0,255)" cx="592.5" cy="411.82635" r="3" /><circle fill="rgb(0,0,255)" cx="596.25" cy="413.61703" r="3" /><circle fill="rgb(0,0,255)" cx="600.0" cy="414.99875" r="3" /><circle fill="rgb(0,0,255)" cx="603.75" cy="415.96805" r="3" /><circle fill="rgb(0,0,255)" cx="607.5" cy="416.52252" r="3" /><circle fill="rgb(0,0,255)" cx="611.25" cy="416.66077" r="3" /><circle fill="rgb(0,0,255)" cx="615.0" cy="416.38245" r="3" /><circle fill="rgb(0,0,255)" cx="618.75" cy="415.6883" r="3" /><circle fill="rgb(0,0,255)" cx="622.5" cy="414.57996" r="3" /><circle fill="rgb(0,0,255)" cx="626.25" cy="413.06027" r="3" /><circle fill="rgb(0,0,255)" cx="630.0" cy="411.13303" r="3" /><circle fill="rgb(0,0,255)" cx="633.75" cy="408.80304" r="3" /><circle fill="rgb(0,0,255)" cx="637.5" cy="406.0761" r="3" /><circle fill="rgb(0,0,255)" cx="641.25" cy="402.95908" r="3" /><circle fill="rgb(0,0,255)" cx="645.0" cy="399.45975" r="3" /><circle fill="rgb(0,0,255)" cx="648.75" cy="395.58682" r="3" /><circle fill="rgb(0,0,255)" cx="652.5" cy="391.35" r="3" /><circle fill="rgb(0,0,255)" cx="656.25" cy="386.7599" r="3" /><circle fill="rgb(0,0,255)" cx="660.0" cy="381.82794" r="3" /><circle fill="rgb(0,0,255)" cx="663.75" cy="376.56653" r="3" /><circle fill="rgb(0,0,255)" cx="667.5" cy="370.9887" r="3" /><circle fill="rgb(0,0,255)" cx="671.25" cy="365.10852" r="3" /><circle fill="rgb(0,0,255)" cx="675.0" cy="358.9406" r="3" /><circle fill="rgb(0,0,255)" cx="678.75" cy="352.5004" r="3" /><circle fill="rgb(0,0,255)" cx="682.5" cy="345.804" r="3" /><circle fill="rgb(0,0,255)" cx="686.25" cy="338.86813" r="3" /><circle fill="rgb(0,0,255)" cx="690.0" cy="331.71014" r="3" /><circle fill="rgb(0,0,255)" cx="693.75" cy="324.3479" r="3" /><circle fill="rgb(0,0,255)" cx="697.5" cy="316.79987" r="3" /><circle fill="rgb(0,0,255)" cx="701.25" cy="309.08484" r="3" /><circle fill="rgb(0,0,255)" cx="705.0" cy="301.22214" r="3" /><circle fill="rgb(0,0,255)" cx="708.75" cy="293.2314" r="3" /><circle fill="rgb(0,0,255)" cx="712.5" cy="285.13263" r="3" /><circle fill="rgb(0,0,255)" cx="716.25" cy="276.94604" r="3" /><circle fill="rgb(0,0,255)" cx="720.0" cy="268.69208" r="3" /><circle fill="rgb(0,0,255)" cx="723.75" cy="260.39142" r="3" /><circle fill="rgb(0,0,255)" cx="727.5" cy="252.06477" r="3" /><circle fill="rgb(0,0,255)" cx="731.25" cy="243.73297" r="3" /><circle fill="rgb(0,0,255)" cx="735.0" cy="235.41684" r="3" /><circle fill="rgb(0,0,255)" cx="738.75" cy="227.13715" r="3" /><circle fill="rgb(0,0,255)" cx="742.5" cy="218.91461" r="3" /><circle fill="rgb(0,0,255)" cx="746.25" cy="210.76974" r="3" /><circle fill="rgb(0,0,255)" cx="750.0" cy="202.72296" r="3" /><circle fill="rgb(255,0,0)" cx="0.0" cy="90.17929" r="3" /><circle fill="rgb(255,0,0)" cx="3.75" cy="88.01614" r="3" /><circle fill="rgb(255,0,0)" cx="7.5" cy="86.257904" r="3" /><circle fill="rgb(255,0,0)" cx="11.25" cy="84.908905" r="3" /><circle fill="rgb(255,0,0)" cx="15.0" cy="83.972565" r="3" /><circle fill="rgb(255,0,0)" cx="18.75" cy="83.4512" r="3" /><circle fill="rgb(255,0,0)" cx="22.5" cy="83.34613" r="3" /><circle fill="rgb(255,0,0)" cx="26.25" cy="83.65759" r="3" /><circle fill="rgb(255,0,0)" cx="30.0" cy="84.38483" r="3" /><circle fill="rgb(255,0,0)" cx="33.75" cy="85.52603" r="3" /><circle fill="rgb(255,0,0)" cx="37.5" cy="87.07831" r="3" /><circle fill="rgb(255,0,0)" cx="41.25" cy="89.03781" r="3" /><circle fill="rgb(255,0,0)" cx="45.0" cy="91.39966" r="3" /><circle fill="rgb(255,0,0)" cx="48.75" cy="94.1579" r="3" /><circle fill="rgb(255,0,0)" cx="52.5" cy="97.305664" r="3" /><circle fill="rgb(255,0,0)" cx="56.25" cy="100.83511" r="3" /><circle fill="rgb(255,0,0)" cx="60.0" cy="104.737366" r="3" /><circle fill="rgb(255,0,0)" cx="63.75" cy="109.002716" r="3" /><circle fill="rgb(255,0,0)" cx="67.5" cy="113.62048" r="3" /><circle fill="rgb(255,0,0)" cx="71.25" cy="118.57913" r="3" /><circle fill="rgb(255,0,0)" cx="75.0" cy="123.86624" r="3" /><circle fill="rgb(255,0,0)" cx="78.75" cy="129.46866" r="3" /><circle fill="rgb(255,0,0)" cx="82.5" cy="135.37231" r="3" /><circle fill="rgb(255,0,0)" cx="86.25" cy="141.56247" r="3" /><circle fill="rgb(255,0,0)" cx="90.0" cy="148.02368" r="3" /><circle fill="rgb(255,0,0)" cx="93.75" cy="154.73978" r="3" /><circle fill="rgb(255,0,0)" cx="97.5" cy="161.69397" r="3" /><circle fill="rgb(255,0,0)" cx="101.25" cy="168.8689" r="3" /><circle fill="rgb(255,0,0)" cx="105.0" cy="176.24658" r="3" /><circle fill="rgb(255,0,0)" cx="108.75" cy="183.80862" r="3" /><circle fill="rgb(255,0,0)" cx="112.5" cy="191.53613" r="3" /><circle fill="rgb(255,0,0)" cx="116.25" cy="199.40976" r="3" /><circle fill="rgb(255,0,0)" cx="120.0" cy="207.40982" r="3" /><circle fill="rgb(255,0,0)" cx="123.75" cy="215.51633" r="3" /><circle fill="rgb(255,0,0)" cx="127.5" cy="223.70905" r="3" /><circle fill="rgb(255,0,0)" cx="131.25" cy="231.96747" r="3" /><circle fill="rgb(255,0,0)" cx="135.0" cy="240.27097" r="3" /><circle fill="rgb(255,0,0)" cx="138.75" cy="248.59879" r="3" /><circle fill="rgb(255,0,0)" cx="142.5" cy="256.9301" r="3" /><circle fill="rgb(255,0,0)" cx="146.25" cy="265.2441" r="3" /><circle fill="rgb(255,0,0)" cx="150.0" cy="273.52002" r="3" /><circle fill="rgb(255,0,0)" cx="153.75" cy="281.73712" r="3" /><circle fill="rgb(255,0,0)" cx="157.5" cy="289.87488" r="3" /><circle fill="rgb(255,0,0)" cx="161.25" cy="297.91302" r="3" /><circle fill="rgb(255,0,0)" cx="165.0" cy="305.83136" r="3" /><circle fill="rgb(255,0,0)" cx="168.75" cy="313.61017" r="3" /><circle fill="rgb(255,0,0)" cx="172.5" cy="321.22998" r="3" /><circle fill="rgb(255,0,0)" cx="176.25" cy="328.67175" r="3" /><circle fill="rgb(255,0,0)" cx="180.0" cy="335.9169" r="3" /><circle fill="rgb(255,0,0)" cx="183.75" cy="342.94727" r="3" /><circle fill="rgb(255,0,0)" cx="187.5" cy="349.74536" r="3" /><circle fill="rgb(255,0,0)" cx="191.25" cy="356.29413" r="3" /><circle fill="rgb(255,0,0)" cx="195.0" cy="362.5772" r="3" /><circle fill="rgb(255,0,0)" cx="198.75" cy="368.5789" r="3" /><circle fill="rgb(255,0,0)" cx="202.5" cy="374.2842" r="3" /><circle fill="rgb(255,0,0)" cx="206.25" cy="379.67886" r="3" /><circle fill="rgb(255,0,0)" cx="210.0" cy="384.7494" r="3" /><circle fill="rgb(255,0,0)" cx="213.75" cy="389.48312" r="3" /><circle fill="rgb(255,0,0)" cx="217.5" cy="393.86823" r="3" /><circle fill="rgb(255,0,0)" cx="221.25" cy="397.89374" r="3" /><circle fill="rgb(255,0,0)" cx="225.0" cy="401.54956" r="3" /><circle fill="rgb(255,0,0)" cx="228.75" cy="404.82663" r="3" /><circle fill="rgb(255,0,0)" cx="232.5" cy="407.71667" r="3" /><circle fill="rgb(255,0,0)" cx="236.25" cy="410.21252" r="3" /><circle fill="rgb(255,0,0)" cx="240.0" cy="412.30792" r="3" /><circle fill="rgb(255,0,0)" cx="243.75" cy="413.99765" r="3" /><circle fill="rgb(255,0,0)" cx="247.5" cy="415.27747" r="3" /><circle fill="rgb(255,0,0)" cx="251.25" cy="416.14417" r="3" /><circle fill="rgb(255,0,0)" cx="255.0" cy="416.5956" r="3" /><circle fill="rgb(255,0,0)" cx="258.75" cy="416.6306" r="3" /><circle fill="rgb(255,0,0)" cx="262.5" cy="416.24915" r="3" /><circle fill="rgb(255,0,0)" cx="266.25" cy="415.45215" r="3" /><circle fill="rgb(255,0,0)" cx="270.0" cy="414.24164" r="3" /><circle fill="rgb(255,0,0)" cx="273.75" cy="412.62054" r="3" /><circle fill="rgb(255,0,0)" cx="277.5" cy="410.59302" r="3" /><circle fill="rgb(255,0,0)" cx="281.25" cy="408.1641" r="3" /><circle fill="rgb(255,0,0)" cx="285.0" cy="405.33984" r="3" /><circle fill="rgb(255,0,0)" cx="288.75" cy="402.12732" r="3" /><circle fill="rgb(255,0,0)" cx="292.5" cy="398.53455" r="3" /><circle fill="rgb(255,0,0)" cx="296.25" cy="394.57056" r="3" /><circle fill="rgb(255,0,0)" cx="300.0" cy="390.24518" r="3" /><circle fill="rgb(255,0,0)" cx="303.75" cy="385.56924" r="3" /><circle fill="rgb(255,0,0)" cx="307.5" cy="380.55447" r="3" /><circle fill="rgb(255,0,0)" cx="311.25" cy="375.2134" r="3" /><circle fill="rgb(255,0,0)" cx="315.0" cy="369.55933" r="3" /><circle fill="rgb(255,0,0)" cx="318.75" cy="363.60645" r="3" /><circle fill="rgb(255,0,0)" cx="322.5" cy="357.36963" r="3" /><circle fill="rgb(255,0,0)" cx="326.25" cy="350.86438" r="3" /><circle fill="rgb(255,0,0)" cx="330.0" cy="344.1071" r="3" /><circle fill="rgb(255,0,0)" cx="333.75" cy="337.11453" r="3" /><circle fill="rgb(255,0,0)" cx="337.5" cy="329.90424" r="3" /><circle fill="rgb(255,0,0)" cx="341.25" cy="322.49426" r="3" /><circle fill="rgb(255,0,0)" cx="345.0" cy="314.90308" r="3" /><circle fill="rgb(255,0,0)" cx="348.75" cy="307.14963" r="3" /><circle fill="rgb(255,0,0)" cx="352.5" cy="299.25336" r="3" /><circle fill="rgb(255,0,0)" cx="356.25" cy="291.234" r="3" /><circle fill="rgb(255,0,0)" cx="360.0" cy="283.11157" r="3" /><circle fill="rgb(255,0,0)" cx="363.75" cy="274.90637" r="3" /><circle fill="rgb(255,0,0)" cx="367.5" cy="266.63892" r="3" /><circle fill="rgb(255,0,0)" cx="371.25" cy="258.32986" r="3" /><circle fill="rgb(255,0,0)" cx="375.0" cy="250.0" r="3" /><circle fill="rgb(255,0,0)" cx="378.75" cy="241.67014" r="3" /><circle fill="rgb(255,0,0)" cx="382.5" cy="233.36108" r="3" /><circle fill="rgb(255,0,0)" cx="386.25" cy="225.09366" r="3" /><circle fill="rgb(255,0,0)" cx="390.0" cy="216.88846" r="3" /><circle fill="rgb(255,0,0)" cx="393.75" cy="208.76602" r="3" /><circle fill="rgb(255,0,0)" cx="397.5" cy="200.74664" r="3" /><circle fill="rgb(255,0,0)" cx="401.25" cy="192.85037" r="3" /><circle fill="rgb(255,0,0)" cx="405.0" cy="185.09695" r="3" /><circle fill="rgb(255,0,0)" cx="408.75" cy="177.50574" r="3" /><circle fill="rgb(255,0,0)" cx="412.5" cy="170.09573" r="3" /><circle fill="rgb(255,0,0)" cx="416.25" cy="162.88547" r="3" /><circle fill="rgb(255,0,0)" cx="420.0" cy="155.89291" r="3" /><circle fill="rgb(255,0,0)" cx="423.75" cy="149.13559" r="3" /><circle fill="rgb(255,0,0)" cx="427.5" cy="142.63037" r="3" /><circle fill="rgb(255,0,0)" cx="431.25" cy="136.39355" r="3" /><circle fill="rgb(255,0,0)" cx="435.0" cy="130.44064" r="3" /><circle fill="rgb(255,0,0)" cx="438.75" cy="124.78659" r="3" /><circle fill="rgb(255,0,0)" cx="442.5" cy="119.445526" r="3" /><circle fill="rgb(255,0,0)" cx="446.25" cy="114.430756" r="3" /><circle fill="rgb(255,0,0)" cx="450.0" cy="109.75482" r="3" /><circle fill="rgb(255,0,0)" cx="453.75" cy="105.429474" r="3" /><circle fill="rgb(255,0,0)" cx="457.5" cy="101.465454" r="3" /><circle fill="rgb(255,0,0)" cx="461.25" cy="97.87268" r="3" /><circle fill="rgb(255,0,0)" cx="465.0" cy="94.66016" r="3" /><circle fill="rgb(255,0,0)" cx="468.75" cy="91.83591" r="3" /><circle fill="rgb(255,0,0)" cx="472.5" cy="89.40698" r="3" /><circle fill="rgb(255,0,0)" cx="476.25" cy="87.379456" r="3" /><circle fill="rgb(255,0,0)" cx="480.0" cy="85.75839" r="3" /><circle fill="rgb(255,0,0)" cx="483.75" cy="84.54782" r="3" /><circle fill="rgb(255,0,0)" cx="487.5" cy="83.750824" r="3" /><circle fill="rgb(255,0,0)" cx="491.25" cy="83.369385" r="3" /><circle fill="rgb(255,0,0)" cx="495.0" cy="83.40439" r="3" /><circle fill="rgb(255,0,0)" cx="498.75" cy="83.855835" r="3" /><circle fill="rgb(255,0,0)" cx="502.5" cy="84.722534" r="3" /><circle fill="rgb(255,0,0)" cx="506.25" cy="86.00235" r="3" /><circle fill="rgb(255,0,0)" cx="510.0" cy="87.69205" r="3" /><circle fill="rgb(255,0,0)" cx="513.75" cy="89.787476" r="3" /><circle fill="rgb(255,0,0)" cx="517.5" cy="92.283325" r="3" /><circle fill="rgb(255,0,0)" cx="521.25" cy="95.17337" r="3" /><circle fill="rgb(255,0,0)" cx="525.0" cy="98.45044" r="3" /><circle fill="rgb(255,0,0)" cx="528.75" cy="102.10626" r="3" /><circle fill="rgb(255,0,0)" cx="532.5" cy="106.131775" r="3" /><circle fill="rgb(255,0,0)" cx="536.25" cy="110.51688" r="3" /><circle fill="rgb(255,0,0)" cx="540.0" cy="115.25061" r="3" /><circle fill="rgb(255,0,0)" cx="543.75" cy="120.32114" r="3" /><circle fill="rgb(255,0,0)" cx="547.5" cy="125.71579" r="3" /><circle fill="rgb(255,0,0)" cx="551.25" cy="131.42111" r="3" /><circle fill="rgb(255,0,0)" cx="555.0" cy="137.42279" r="3" /><circle fill="rgb(255,0,0)" cx="558.75" cy="143.70587" r="3" /><circle fill="rgb(255,0,0)" cx="562.5" cy="150.25464" r="3" /><circle fill="rgb(255,0,0)" cx="566.25" cy="157.0527" r="3" /><circle fill="rgb(255,0,0)" cx="570.0" cy="164.0831" r="3" /><circle fill="rgb(255,0,0)" cx="573.75" cy="171.32825" r="3" /><circle fill="rgb(255,0,0)" cx="577.5" cy="178.77002" r="3" /><circle fill="rgb(255,0,0)" cx="581.25" cy="186.38983" r="3" /><circle fill="rgb(255,0,0)" cx="585.0" cy="194.16864" r="3" /><circle fill="rgb(255,0,0)" cx="588.75" cy="202.087" r="3" /><circle fill="rgb(255,0,0)" cx="592.5" cy="210.12512" r="3" /><circle fill="rgb(255,0,0)" cx="596.25" cy="218.26288" r="3" /><circle fill="rgb(255,0,0)" cx="600.0" cy="226.48001" r="3" /><circle fill="rgb(255,0,0)" cx="603.75" cy="234.75589" r="3" /><circle fill="rgb(255,0,0)" cx="607.5" cy="243.06989" r="3" /><circle fill="rgb(255,0,0)" cx="611.25" cy="251.40121" r="3" /><circle fill="rgb(255,0,0)" cx="615.0" cy="259.729" r="3" /><circle fill="rgb(255,0,0)" cx="618.75" cy="268.03253" r="3" /><circle fill="rgb(255,0,0)" cx="622.5" cy="276.29095" r="3" /><circle fill="rgb(255,0,0)" cx="626.25" cy="284.48364" r="3" /><circle fill="rgb(255,0,0)" cx="630.0" cy="292.59018" r="3" /><circle fill="rgb(255,0,0)" cx="633.75" cy="300.59027" r="3" /><circle fill="rgb(255,0,0)" cx="637.5" cy="308.46387" r="3" /><circle fill="rgb(255,0,0)" cx="641.25" cy="316.19135" r="3" /><circle fill="rgb(255,0,0)" cx="645.0" cy="323.75342" r="3" /><circle fill="rgb(255,0,0)" cx="648.75" cy="331.1311" r="3" /><circle fill="rgb(255,0,0)" cx="652.5" cy="338.30603" r="3" /><circle fill="rgb(255,0,0)" cx="656.25" cy="345.26022" r="3" /><circle fill="rgb(255,0,0)" cx="660.0" cy="351.97632" r="3" /><circle fill="rgb(255,0,0)" cx="663.75" cy="358.4375" r="3" /><circle fill="rgb(255,0,0)" cx="667.5" cy="364.6277" r="3" /><circle fill="rgb(255,0,0)" cx="671.25" cy="370.53137" r="3" /><circle fill="rgb(255,0,0)" cx="675.0" cy="376.13376" r="3" /><circle fill="rgb(255,0,0)" cx="678.75" cy="381.42087" r="3" /><circle fill="rgb(255,0,0)" cx="682.5" cy="386.37952" r="3" /><circle fill="rgb(255,0,0)" cx="686.25" cy="390.99728" r="3" /><circle fill="rgb(255,0,0)" cx="690.0" cy="395.26263" r="3" /><circle fill="rgb(255,0,0)" cx="693.75" cy="399.1649" r="3" /><circle fill="rgb(255,0,0)" cx="697.5" cy="402.69434" r="3" /><circle fill="rgb(255,0,0)" cx="701.25" cy="405.8421" r="3" /><circle fill="rgb(255,0,0)" cx="705.0" cy="408.60034" r="3" /><circle fill="rgb(255,0,0)" cx="708.75" cy="410.96216" r="3" /><circle fill="rgb(255,0,0)" cx="712.5" cy="412.9217" r="3" /><circle fill="rgb(255,0,0)" cx="716.25" cy="414.47397" r="3" /><circle fill="rgb(255,0,0)" cx="720.0" cy="415.61517" r="3" /><circle fill="rgb(255,0,0)" cx="723.75" cy="416.3424" r="3" /><circle fill="rgb(255,0,0)" cx="727.5" cy="416.65387" r="3" /><circle fill="rgb(255,0,0)" cx="731.25" cy="416.5488" r="3" /><circle fill="rgb(255,0,0)" cx="735.0" cy="416.02744" r="3" /><circle fill="rgb(255,0,0)" cx="738.75" cy="415.0911" r="3" /><circle fill="rgb(255,0,0)" cx="742.5" cy="413.7421" r="3" /><circle fill="rgb(255,0,0)" cx="746.25" cy="411.98386" r="3" /><circle fill="rgb(255,0,0)" cx="750.0" cy="409.8207" r="3" /></g></svg>